<svg width="160" height="160" viewBox="0 0 160 160" fill="none" xmlns="http://www.w3.org/2000/svg">
<g clip-path="url(#clip0_71_1233)">
<path d="M131.331 6.00853C132.99 6.00853 134.335 4.66348 134.335 3.00427C134.335 1.34506 132.99 0 131.331 0C129.671 0 128.326 1.34506 128.326 3.00427C128.326 4.66348 129.671 6.00853 131.331 6.00853Z" fill="#00A0E9"/>
<path d="M105.665 6.00853C107.324 6.00853 108.669 4.66348 108.669 3.00427C108.669 1.34506 107.324 0 105.665 0C104.006 0 102.661 1.34506 102.661 3.00427C102.661 4.66348 104.006 6.00853 105.665 6.00853Z" fill="#00A0E9"/>
<path d="M80.0001 6.00853C81.6593 6.00853 83.0044 4.66348 83.0044 3.00427C83.0044 1.34506 81.6593 0 80.0001 0C78.3409 0 76.9958 1.34506 76.9958 3.00427C76.9958 4.66348 78.3409 6.00853 80.0001 6.00853Z" fill="#00A0E9"/>
<path d="M54.3351 6.00853C55.9943 6.00853 57.3393 4.66348 57.3393 3.00427C57.3393 1.34506 55.9943 0 54.3351 0C52.6759 0 51.3308 1.34506 51.3308 3.00427C51.3308 4.66348 52.6759 6.00853 54.3351 6.00853Z" fill="#00A0E9"/>
<path d="M28.6693 6.00853C30.3285 6.00853 31.6736 4.66348 31.6736 3.00427C31.6736 1.34506 30.3285 0 28.6693 0C27.0101 0 25.665 1.34506 25.665 3.00427C25.665 4.66348 27.0101 6.00853 28.6693 6.00853Z" fill="#00A0E9"/>
<path d="M156.996 6.00853C158.655 6.00853 160 4.66348 160 3.00427C160 1.34506 158.655 0 156.996 0C155.337 0 153.991 1.34506 153.991 3.00427C153.991 4.66348 155.337 6.00853 156.996 6.00853Z" fill="#00A0E9"/>
<path d="M3.00427 6.00853C4.66348 6.00853 6.00853 4.66348 6.00853 3.00427C6.00853 1.34506 4.66348 0 3.00427 0C1.34506 0 0 1.34506 0 3.00427C0 4.66348 1.34506 6.00853 3.00427 6.00853Z" fill="#00A0E9"/>
<path d="M4.97532 30.9367C6.22758 29.8482 6.36034 27.9507 5.27185 26.6984C4.18335 25.4462 2.28579 25.3134 1.03353 26.4019C-0.218729 27.4904 -0.351486 29.388 0.73701 30.6402C1.82551 31.8925 3.72306 32.0252 4.97532 30.9367Z" fill="#00A0E9"/>
<path d="M4.97557 56.602C6.22783 55.5135 6.36058 53.616 5.27209 52.3637C4.18359 51.1114 2.28603 50.9787 1.03377 52.0672C-0.218485 53.1557 -0.351243 55.0532 0.737253 56.3055C1.82575 57.5578 3.72331 57.6905 4.97557 56.602Z" fill="#00A0E9"/>
<path d="M4.97324 82.2895C6.22595 81.2011 6.35911 79.3032 5.27067 78.0505C4.18223 76.7978 2.28435 76.6646 1.03165 77.7531C-0.221055 78.8415 -0.354217 80.7394 0.734225 81.9921C1.82267 83.2448 3.72054 83.378 4.97324 82.2895Z" fill="#00A0E9"/>
<path d="M4.97557 107.932C6.22783 106.844 6.36058 104.946 5.27209 103.694C4.18359 102.442 2.28603 102.309 1.03377 103.398C-0.218485 104.486 -0.351243 106.384 0.737253 107.636C1.82575 108.888 3.72331 109.021 4.97557 107.932Z" fill="#00A0E9"/>
<path d="M4.97582 133.598C6.22808 132.509 6.36083 130.612 5.27233 129.36C4.18384 128.107 2.28628 127.975 1.03402 129.063C-0.218241 130.152 -0.350999 132.049 0.737497 133.301C1.82599 134.554 3.72356 134.686 4.97582 133.598Z" fill="#00A0E9"/>
<path d="M4.97557 159.263C6.22783 158.174 6.36058 156.277 5.27209 155.024C4.18359 153.772 2.28603 153.639 1.03377 154.728C-0.218485 155.816 -0.351243 157.714 0.737253 158.966C1.82575 160.218 3.72331 160.351 4.97557 159.263Z" fill="#00A0E9"/>
<path d="M30.6399 30.9365C31.8921 29.848 32.0249 27.9504 30.9364 26.6982C29.8479 25.4459 27.9503 25.3132 26.6981 26.4017C25.4458 27.4902 25.3131 29.3877 26.4016 30.64C27.4901 31.8922 29.3876 32.025 30.6399 30.9365Z" fill="#00A0E9"/>
<path d="M30.6406 56.602C31.8929 55.5135 32.0256 53.616 30.9371 52.3637C29.8486 51.1114 27.9511 50.9787 26.6988 52.0672C25.4466 53.1557 25.3138 55.0532 26.4023 56.3055C27.4908 57.5578 29.3883 57.6905 30.6406 56.602Z" fill="#00A0E9"/>
<path d="M30.6456 82.29C31.8983 81.2016 32.0315 79.3037 30.943 78.051C29.8546 76.7983 27.9567 76.6651 26.704 77.7536C25.4513 78.842 25.3181 80.7399 26.4066 81.9926C27.495 83.2453 29.3929 83.3784 30.6456 82.29Z" fill="#00A0E9"/>
<path d="M30.6401 107.932C31.8924 106.844 32.0251 104.946 30.9366 103.694C29.8481 102.442 27.9506 102.309 26.6983 103.397C25.4461 104.486 25.3133 106.383 26.4018 107.636C27.4903 108.888 29.3879 109.021 30.6401 107.932Z" fill="#00A0E9"/>
<path d="M30.6411 133.598C31.8934 132.509 32.0261 130.612 30.9376 129.359C29.8491 128.107 27.9516 127.974 26.6993 129.063C25.447 130.151 25.3143 132.049 26.4028 133.301C27.4913 134.553 29.3888 134.686 30.6411 133.598Z" fill="#00A0E9"/>
<path d="M30.6406 159.263C31.8929 158.174 32.0256 156.277 30.9371 155.024C29.8486 153.772 27.9511 153.639 26.6988 154.728C25.4466 155.816 25.3138 157.714 26.4023 158.966C27.4908 160.218 29.3883 160.351 30.6406 159.263Z" fill="#00A0E9"/>
<path d="M56.3054 30.9363C57.5577 29.8478 57.6904 27.9502 56.6019 26.6979C55.5134 25.4457 53.6159 25.3129 52.3636 26.4014C51.1113 27.4899 50.9786 29.3875 52.0671 30.6397C53.1556 31.892 55.0531 32.0248 56.3054 30.9363Z" fill="#00A0E9"/>
<path d="M56.3054 56.6018C57.5577 55.5133 57.6904 53.6157 56.6019 52.3635C55.5134 51.1112 53.6159 50.9785 52.3636 52.0669C51.1113 53.1554 50.9786 55.053 52.0671 56.3053C53.1556 57.5575 55.0531 57.6903 56.3054 56.6018Z" fill="#00A0E9"/>
<path d="M56.317 82.291C57.5697 81.2025 57.7029 79.3047 56.6144 78.052C55.526 76.7993 53.6281 76.6661 52.3754 77.7545C51.1227 78.843 50.9895 80.7409 52.078 81.9936C53.1664 83.2463 55.0643 83.3794 56.317 82.291Z" fill="#00A0E9"/>
<path d="M56.3056 107.932C57.5579 106.844 57.6907 104.946 56.6022 103.694C55.5137 102.442 53.6161 102.309 52.3639 103.397C51.1116 104.486 50.9788 106.383 52.0673 107.636C53.1558 108.888 55.0534 109.021 56.3056 107.932Z" fill="#00A0E9"/>
<path d="M56.3056 133.597C57.5579 132.509 57.6907 130.611 56.6022 129.359C55.5137 128.107 53.6161 127.974 52.3639 129.063C51.1116 130.151 50.9788 132.049 52.0673 133.301C53.1558 134.553 55.0534 134.686 56.3056 133.597Z" fill="#00A0E9"/>
<path d="M56.3061 159.262C57.5584 158.174 57.6912 156.276 56.6027 155.024C55.5142 153.772 53.6166 153.639 52.3643 154.728C51.1121 155.816 50.9793 157.714 52.0678 158.966C53.1563 160.218 55.0539 160.351 56.3061 159.262Z" fill="#00A0E9"/>
<path d="M81.97 30.9365C83.2222 29.848 83.355 27.9504 82.2665 26.6982C81.178 25.4459 79.2804 25.3132 78.0282 26.4017C76.7759 27.4902 76.6431 29.3877 77.7316 30.64C78.8201 31.8922 80.7177 32.025 81.97 30.9365Z" fill="#00A0E9"/>
<path d="M81.9707 56.6015C83.2229 55.513 83.3557 53.6155 82.2672 52.3632C81.1787 51.111 79.2812 50.9782 78.0289 52.0667C76.7766 53.1552 76.6439 55.0528 77.7324 56.305C78.8209 57.5573 80.7184 57.69 81.9707 56.6015Z" fill="#00A0E9"/>
<path d="M81.9889 82.2915C83.2416 81.203 83.3747 79.3052 82.2863 78.0524C81.1979 76.7997 79.3 76.6666 78.0473 77.755C76.7946 78.8435 76.6614 80.7413 77.7499 81.994C78.8383 83.2468 80.7362 83.3799 81.9889 82.2915Z" fill="#00A0E9"/>
<path d="M81.9702 107.932C83.2225 106.843 83.3552 104.946 82.2667 103.694C81.1782 102.441 79.2807 102.309 78.0284 103.397C76.7761 104.486 76.6434 106.383 77.7319 107.635C78.8204 108.888 80.7179 109.02 81.9702 107.932Z" fill="#00A0E9"/>
<path d="M81.9709 133.598C83.2232 132.509 83.3559 130.612 82.2675 129.359C81.179 128.107 79.2814 127.974 78.0291 129.063C76.7769 130.151 76.6441 132.049 77.7326 133.301C78.8211 134.553 80.7187 134.686 81.9709 133.598Z" fill="#00A0E9"/>
<path d="M81.9707 159.263C83.2229 158.174 83.3557 156.277 82.2672 155.024C81.1787 153.772 79.2812 153.639 78.0289 154.728C76.7766 155.816 76.6439 157.714 77.7324 158.966C78.8209 160.218 80.7184 160.351 81.9707 159.263Z" fill="#00A0E9"/>
<path d="M107.635 30.936C108.887 29.8475 109.02 27.95 107.932 26.6977C106.843 25.4454 104.945 25.3127 103.693 26.4012C102.441 27.4897 102.308 29.3872 103.397 30.6395C104.485 31.8917 106.383 32.0245 107.635 30.936Z" fill="#00A0E9"/>
<path d="M107.635 56.6018C108.887 55.5133 109.02 53.6157 107.932 52.3635C106.843 51.1112 104.946 50.9784 103.693 52.0669C102.441 53.1554 102.308 55.053 103.397 56.3053C104.485 57.5575 106.383 57.6903 107.635 56.6018Z" fill="#00A0E9"/>
<path d="M107.661 82.2927C108.914 81.2042 109.047 79.3064 107.959 78.0537C106.87 76.801 104.972 76.6678 103.72 77.7563C102.467 78.8447 102.334 80.7426 103.422 81.9953C104.511 83.248 106.409 83.3811 107.661 82.2927Z" fill="#00A0E9"/>
<path d="M107.635 107.932C108.887 106.843 109.02 104.946 107.932 103.693C106.843 102.441 104.946 102.308 103.693 103.397C102.441 104.485 102.308 106.383 103.397 107.635C104.485 108.887 106.383 109.02 107.635 107.932Z" fill="#00A0E9"/>
<path d="M107.635 133.597C108.888 132.509 109.02 130.611 107.932 129.359C106.844 128.107 104.946 127.974 103.694 129.062C102.441 130.151 102.309 132.048 103.397 133.301C104.486 134.553 106.383 134.686 107.635 133.597Z" fill="#00A0E9"/>
<path d="M107.636 159.262C108.888 158.174 109.021 156.276 107.932 155.024C106.844 153.772 104.946 153.639 103.694 154.728C102.442 155.816 102.309 157.714 103.397 158.966C104.486 160.218 106.383 160.351 107.636 159.262Z" fill="#00A0E9"/>
<path d="M133.3 30.9363C134.553 29.8478 134.685 27.9502 133.597 26.6979C132.508 25.4457 130.611 25.3129 129.358 26.4014C128.106 27.4899 127.973 29.3875 129.062 30.6397C130.15 31.892 132.048 32.0247 133.3 30.9363Z" fill="#00A0E9"/>
<path d="M133.3 56.6015C134.553 55.513 134.685 53.6155 133.597 52.3632C132.508 51.111 130.611 50.9782 129.358 52.0667C128.106 53.1552 127.973 55.0528 129.062 56.305C130.15 57.5573 132.048 57.69 133.3 56.6015Z" fill="#00A0E9"/>
<path d="M133.333 82.2932C134.585 81.2047 134.718 79.3069 133.63 78.0542C132.542 76.8015 130.644 76.6683 129.391 77.7567C128.138 78.8452 128.005 80.7431 129.094 81.9958C130.182 83.2485 132.08 83.3816 133.333 82.2932Z" fill="#00A0E9"/>
<path d="M133.301 107.932C134.553 106.843 134.686 104.946 133.597 103.694C132.509 102.441 130.611 102.309 129.359 103.397C128.106 104.486 127.974 106.383 129.062 107.635C130.151 108.888 132.048 109.02 133.301 107.932Z" fill="#00A0E9"/>
<path d="M133.301 133.597C134.553 132.509 134.686 130.611 133.597 129.359C132.509 128.107 130.611 127.974 129.359 129.063C128.106 130.151 127.974 132.049 129.062 133.301C130.151 134.553 132.048 134.686 133.301 133.597Z" fill="#00A0E9"/>
<path d="M133.3 159.262C134.553 158.173 134.685 156.276 133.597 155.024C132.508 153.771 130.611 153.639 129.358 154.727C128.106 155.816 127.973 157.713 129.062 158.965C130.15 160.218 132.048 160.35 133.3 159.262Z" fill="#00A0E9"/>
<path d="M158.965 30.936C160.217 29.8475 160.35 27.95 159.261 26.6977C158.173 25.4454 156.275 25.3127 155.023 26.4012C153.771 27.4897 153.638 29.3872 154.727 30.6395C155.815 31.8917 157.713 32.0245 158.965 30.936Z" fill="#00A0E9"/>
<path d="M158.965 56.6015C160.218 55.513 160.35 53.6155 159.262 52.3632C158.173 51.111 156.276 50.9782 155.024 52.0667C153.771 53.1552 153.639 55.0528 154.727 56.305C155.815 57.5573 157.713 57.69 158.965 56.6015Z" fill="#00A0E9"/>
<path d="M159.004 82.2937C160.257 81.2052 160.39 79.3074 159.302 78.0547C158.213 76.8019 156.316 76.6688 155.063 77.7572C153.81 78.8457 153.677 80.7435 154.765 81.9962C155.854 83.249 157.752 83.3821 159.004 82.2937Z" fill="#00A0E9"/>
<path d="M158.965 107.931C160.218 106.843 160.35 104.945 159.262 103.693C158.173 102.441 156.276 102.308 155.024 103.397C153.771 104.485 153.639 106.383 154.727 107.635C155.815 108.887 157.713 109.02 158.965 107.931Z" fill="#00A0E9"/>
<path d="M158.966 133.597C160.218 132.508 160.351 130.611 159.263 129.359C158.174 128.106 156.277 127.974 155.024 129.062C153.772 130.151 153.639 132.048 154.728 133.3C155.816 134.553 157.714 134.685 158.966 133.597Z" fill="#00A0E9"/>
<path d="M158.966 159.262C160.218 158.174 160.351 156.276 159.262 155.024C158.174 153.772 156.276 153.639 155.024 154.727C153.772 155.816 153.639 157.713 154.727 158.966C155.816 160.218 157.714 160.351 158.966 159.262Z" fill="#00A0E9"/>
</g>
<defs>
<clipPath id="clip0_71_1233">
<rect width="160" height="160" fill="white"/>
</clipPath>
</defs>
</svg>
