<svg width="21" height="21" viewBox="0 0 21 21" fill="none" xmlns="http://www.w3.org/2000/svg">
<g clip-path="url(#clip0_204_922)">
<path d="M16.5934 7.70341L11.5621 16.4178C11.098 17.2217 10.3335 17.8083 9.43689 18.0485C8.54027 18.2888 7.58492 18.163 6.78103 17.6989C5.97713 17.2348 5.39054 16.4703 5.15029 15.5737C4.91004 14.677 5.03581 13.7217 5.49994 12.9178L10.9687 3.44564C11.2588 2.94321 11.7366 2.57658 12.297 2.42643C12.8573 2.27627 13.4544 2.35488 13.9569 2.64496C14.4593 2.93504 14.8259 3.41283 14.9761 3.97322C15.1262 4.53362 15.0476 5.13071 14.7576 5.63314L10.1638 13.5897C10.0478 13.7907 9.85665 13.9374 9.63249 13.9974C9.40834 14.0575 9.1695 14.0261 8.96853 13.91C8.76755 13.794 8.62091 13.6029 8.56084 13.3787C8.50078 13.1546 8.53222 12.9157 8.64826 12.7147L12.8045 5.51591L11.6678 4.85966L7.5116 12.0585C7.22152 12.5609 7.14291 13.158 7.29307 13.7184C7.44322 14.2788 7.80984 14.7566 8.31228 15.0467C8.81471 15.3368 9.4118 15.4154 9.97219 15.2652C10.5326 15.1151 11.0104 14.7484 11.3005 14.246L15.8942 6.28939C16.3583 5.4855 16.4841 4.53015 16.2439 3.63352C16.0036 2.7369 15.417 1.97243 14.6131 1.5083C13.8092 1.04417 12.8539 0.918399 11.9573 1.15865C11.0606 1.3989 10.2962 1.9855 9.83203 2.78939L4.36328 12.2615C3.7251 13.3669 3.55216 14.6805 3.88251 15.9134C4.21285 17.1462 5.01942 18.1974 6.12478 18.8355C7.23013 19.4737 8.54373 19.6467 9.77659 19.3163C11.0095 18.986 12.0606 18.1794 12.6988 17.074L17.73 8.35966L16.5934 7.70341Z" fill="#6A6A6A"/>
</g>
<defs>
<clipPath id="clip0_204_922">
<rect width="21" height="21" fill="white"/>
</clipPath>
</defs>
</svg>
