<svg width="24" height="24" viewBox="0 0 24 24" fill="none" xmlns="http://www.w3.org/2000/svg">
<g clip-path="url(#clip0_149_1224)">
<path d="M18.9645 8.80376L13.2145 18.7631C12.6841 19.6818 11.8104 20.3522 10.7857 20.6268C9.761 20.9013 8.66918 20.7576 7.75044 20.2272C6.83171 19.6967 6.16131 18.823 5.88674 17.7983C5.61217 16.7736 5.75591 15.6818 6.28634 14.7631L12.5363 3.93773C12.8679 3.36352 13.4139 2.94453 14.0544 2.77292C14.6948 2.60131 15.3772 2.69115 15.9514 3.02267C16.5256 3.35419 16.9446 3.90024 17.1162 4.54069C17.2878 5.18114 17.198 5.86352 16.8665 6.43773L11.6165 15.531C11.4839 15.7607 11.2654 15.9283 11.0093 15.9969C10.7531 16.0656 10.4801 16.0296 10.2504 15.897C10.0208 15.7644 9.85316 15.546 9.78452 15.2898C9.71587 15.0336 9.75181 14.7607 9.88442 14.531L14.6344 6.30376L13.3354 5.55376L8.58538 13.781C8.25386 14.3552 8.16402 15.0376 8.33563 15.678C8.50724 16.3185 8.92623 16.8645 9.50044 17.1961C10.0747 17.5276 10.757 17.6174 11.3975 17.4458C12.0379 17.2742 12.584 16.8552 12.9155 16.281L18.1655 7.18773C18.6959 6.269 18.8397 5.17718 18.5651 4.15246C18.2905 3.12774 17.6201 2.25407 16.7014 1.72363C15.7827 1.1932 14.6908 1.04946 13.6661 1.32403C12.6414 1.5986 11.7677 2.269 11.2373 3.18773L4.9873 14.0131C4.25796 15.2763 4.06031 16.7776 4.43785 18.1866C4.81539 19.5955 5.73718 20.7968 7.00044 21.5262C8.26371 22.2555 9.76496 22.4532 11.1739 22.0756C12.5829 21.6981 13.7842 20.7763 14.5136 19.5131L20.2636 9.55376L18.9645 8.80376Z" fill="#44C19A"/>
</g>
<defs>
<clipPath id="clip0_149_1224">
<rect width="24" height="24" fill="white"/>
</clipPath>
</defs>
</svg>
