<svg width="167" height="95" viewBox="0 0 167 95" fill="none" xmlns="http://www.w3.org/2000/svg">
<g clip-path="url(#clip0_1039_1468)">
<g filter="url(#filter0_i_1039_1468)">
<mask id="mask0_1039_1468" style="mask-type:alpha" maskUnits="userSpaceOnUse" x="53" y="28" width="13" height="67">
<path d="M53.7656 28.2249H65.0632V94.6492H53.7656V28.2249Z" fill="#111111"/>
</mask>
<g mask="url(#mask0_1039_1468)">
<path d="M53.7656 28.2249H65.0632V94.6492H53.7656V28.2249Z" fill="#470000"/>
</g>
<mask id="mask1_1039_1468" style="mask-type:alpha" maskUnits="userSpaceOnUse" x="0" y="28" width="45" height="67">
<path d="M44.9313 39.4423V28.2249H11.9187H0.621094V94.6492H11.9187H44.9313V83.4315H11.9187V66.9481H44.9313V55.829H11.9187V39.4423H44.9313Z" fill="#111111"/>
</mask>
<g mask="url(#mask1_1039_1468)">
<path d="M44.9313 39.4423V28.2249H11.9187H0.621094V94.6492H11.9187H44.9313V83.4315H11.9187V66.9481H44.9313V55.829H11.9187V39.4423H44.9313Z" fill="#470000"/>
</g>
<mask id="mask2_1039_1468" style="mask-type:alpha" maskUnits="userSpaceOnUse" x="71" y="43" width="41" height="52">
<path d="M81.6206 77.7629C81.6777 80.5056 82.662 82.5341 84.5734 83.8483C86.4849 85.1639 88.8956 85.8196 91.8056 85.8196C92.9467 85.8196 94.0451 85.7053 95.1007 85.4767C96.1563 85.2496 97.0835 84.8768 97.8823 84.3625C98.6811 83.8483 99.323 83.2054 99.808 82.4341C100.293 81.6627 100.536 80.7342 100.536 79.6485C100.536 78.7914 100.279 78.0343 99.7652 77.3772C99.2517 76.7216 98.4101 76.1059 97.2404 75.5345C96.0707 74.9646 94.5586 74.4346 92.7042 73.9489C90.8498 73.4646 88.5818 72.9075 85.9 72.2776C84.0171 71.8205 82.234 71.2919 80.5508 70.692C78.8676 70.092 77.4126 69.3078 76.1858 68.335C74.9591 67.3636 73.9748 66.1637 73.2331 64.7352C72.4913 63.3082 72.0919 61.5354 72.0348 59.4213C72.0348 56.4514 72.5626 53.9788 73.6182 52.0075C74.6738 50.0361 76.086 48.4505 77.8548 47.2506C79.6236 46.0507 81.6634 45.1936 83.9743 44.6793C86.2852 44.1651 88.6674 43.908 91.1209 43.908C93.5744 43.908 95.9281 44.1794 98.1819 44.7222C100.436 45.2665 102.433 46.1364 104.173 47.3363C105.913 48.5362 107.354 50.1218 108.495 52.0931C109.636 54.0644 110.321 56.4786 110.549 59.3355H99.9364C99.7652 56.88 98.8808 55.1787 97.2832 54.2359C95.6856 53.2931 93.5174 52.8217 90.7785 52.8217C88.6674 52.8217 86.8843 53.1217 85.4293 53.7216C83.9744 54.3216 83.2468 55.5087 83.2468 57.2785C83.2468 58.937 84.174 60.1926 86.0285 61.0497C87.8829 61.9068 90.693 62.7353 94.4588 63.5353C96.57 64.0495 98.6669 64.5938 100.75 65.1638C102.832 65.7351 104.687 66.5351 106.313 67.5636C107.939 68.5921 109.251 69.9349 110.25 71.5919C111.248 73.2503 111.748 75.3631 111.748 77.9343C111.748 81.0199 111.191 83.6211 110.079 85.7339C108.966 87.848 107.482 89.5779 105.628 90.9192C103.774 92.262 101.634 93.2205 99.209 93.7905C96.784 94.3605 94.2877 94.6476 91.72 94.6476C89.0383 94.6476 86.4706 94.3476 84.0171 93.7476C81.5636 93.1477 79.3954 92.192 77.5125 90.8764C75.6295 89.5622 74.1032 87.8209 72.9335 85.6481C71.7638 83.4768 71.1219 80.8485 71.0078 77.7629H81.6207H81.6206Z" fill="#111111"/>
</mask>
<g mask="url(#mask2_1039_1468)">
<path d="M81.6206 77.7629C81.6777 80.5056 82.662 82.5341 84.5734 83.8483C86.4849 85.1639 88.8956 85.8196 91.8056 85.8196C92.9467 85.8196 94.0451 85.7053 95.1007 85.4767C96.1563 85.2496 97.0835 84.8768 97.8823 84.3625C98.6811 83.8483 99.323 83.2054 99.808 82.4341C100.293 81.6627 100.536 80.7342 100.536 79.6485C100.536 78.7914 100.279 78.0343 99.7652 77.3772C99.2517 76.7216 98.4101 76.1059 97.2404 75.5345C96.0707 74.9646 94.5586 74.4346 92.7042 73.9489C90.8498 73.4646 88.5818 72.9075 85.9 72.2776C84.0171 71.8205 82.234 71.2919 80.5508 70.692C78.8676 70.092 77.4126 69.3078 76.1858 68.335C74.9591 67.3636 73.9748 66.1637 73.2331 64.7352C72.4913 63.3082 72.0919 61.5354 72.0348 59.4213C72.0348 56.4514 72.5626 53.9788 73.6182 52.0075C74.6738 50.0361 76.086 48.4505 77.8548 47.2506C79.6236 46.0507 81.6634 45.1936 83.9743 44.6793C86.2852 44.1651 88.6674 43.908 91.1209 43.908C93.5744 43.908 95.9281 44.1794 98.1819 44.7222C100.436 45.2665 102.433 46.1364 104.173 47.3363C105.913 48.5362 107.354 50.1218 108.495 52.0931C109.636 54.0644 110.321 56.4786 110.549 59.3355H99.9364C99.7652 56.88 98.8808 55.1787 97.2832 54.2359C95.6856 53.2931 93.5174 52.8217 90.7785 52.8217C88.6674 52.8217 86.8843 53.1217 85.4293 53.7216C83.9744 54.3216 83.2468 55.5087 83.2468 57.2785C83.2468 58.937 84.174 60.1926 86.0285 61.0497C87.8829 61.9068 90.693 62.7353 94.4588 63.5353C96.57 64.0495 98.6669 64.5938 100.75 65.1638C102.832 65.7351 104.687 66.5351 106.313 67.5636C107.939 68.5921 109.251 69.9349 110.25 71.5919C111.248 73.2503 111.748 75.3631 111.748 77.9343C111.748 81.0199 111.191 83.6211 110.079 85.7339C108.966 87.848 107.482 89.5779 105.628 90.9192C103.774 92.262 101.634 93.2205 99.209 93.7905C96.784 94.3605 94.2877 94.6476 91.72 94.6476C89.0383 94.6476 86.4706 94.3476 84.0171 93.7476C81.5636 93.1477 79.3954 92.192 77.5125 90.8764C75.6295 89.5622 74.1032 87.8209 72.9335 85.6481C71.7638 83.4768 71.1219 80.8485 71.0078 77.7629H81.6207H81.6206Z" fill="#470000"/>
</g>
<mask id="mask3_1039_1468" style="mask-type:alpha" maskUnits="userSpaceOnUse" x="117" y="43" width="49" height="52">
<path d="M141.522 84.9311C134.309 84.9311 128.462 79.9106 128.462 73.7175H165.13C165.372 72.2734 165.521 70.7953 165.521 69.2779C165.521 55.2664 154.776 43.908 141.522 43.908C128.268 43.908 117.523 55.2664 117.523 69.2779C117.523 83.2893 128.268 94.6475 141.522 94.6475C151.74 94.6475 160.443 87.885 163.905 78.3729H153.372C151.309 82.2348 146.794 84.9311 141.522 84.9311V84.9311ZM141.522 53.6244C148.735 53.6244 154.582 58.6449 154.582 64.8379H128.462C128.462 58.6448 134.309 53.6244 141.522 53.6244V53.6244Z" fill="#111111"/>
</mask>
<g mask="url(#mask3_1039_1468)">
<path d="M141.522 84.9311C134.309 84.9311 128.462 79.9106 128.462 73.7175H165.13C165.372 72.2734 165.521 70.7953 165.521 69.2779C165.521 55.2664 154.776 43.908 141.522 43.908C128.268 43.908 117.523 55.2664 117.523 69.2779C117.523 83.2893 128.268 94.6475 141.522 94.6475C151.74 94.6475 160.443 87.885 163.905 78.3729H153.372C151.309 82.2348 146.794 84.9311 141.522 84.9311V84.9311ZM141.522 53.6244C148.735 53.6244 154.582 58.6449 154.582 64.8379H128.462C128.462 58.6448 134.309 53.6244 141.522 53.6244V53.6244Z" fill="#470000"/>
</g>
<mask id="mask4_1039_1468" style="mask-type:alpha" maskUnits="userSpaceOnUse" x="-22" y="-2" width="216" height="126">
<path opacity="0.15" d="M87.4983 -0.723294C87.4983 -0.723294 68.273 1.68326 87.4983 36.8191C87.4983 36.8191 83.0925 33.7441 78.9537 29.5994V40.1883C78.9537 40.1883 37.5124 -5.05512 87.4983 -0.723294Z" fill="black"/>
<path opacity="0.15" d="M87.4983 82.9767C87.4983 82.9767 68.273 85.3832 87.4983 120.519C87.4983 120.519 83.0925 117.444 78.9537 113.299V123.888C78.9537 123.888 37.5124 78.6448 87.4983 82.9767Z" fill="black"/>
<path opacity="0.7" d="M84.385 41.1261C84.385 41.1261 65.1597 43.5326 84.385 78.6685C84.385 78.6685 79.9792 75.5934 75.8405 71.4488V82.0377C75.8405 82.0377 34.3992 36.7942 84.385 41.1261Z" fill="#B60101"/>
<path opacity="0.15" d="M88.6287 43.889C88.6287 43.889 110.738 36.4073 104.97 58.0664C104.97 58.0664 116.983 51.3294 116.986 39.2991C116.991 16.8021 80.7171 18.6237 88.6287 43.889V43.889Z" fill="black"/>
<path opacity="0.3" d="M85.5154 81.0675C85.5154 81.0675 107.625 73.5858 101.857 95.2448C101.857 95.2448 113.87 88.5079 113.873 76.4776C113.878 53.9806 77.6038 55.8021 85.5154 81.0675V81.0675Z" fill="black"/>
<path opacity="0.15" d="M139.369 64.4901C139.369 64.4901 117.26 57.0084 123.028 78.6674C123.028 78.6674 111.014 71.9305 111.012 59.9002C111.007 37.4032 147.281 39.2247 139.369 64.4901V64.4901Z" fill="black"/>
<path opacity="0.15" d="M136.529 19.2709C136.529 19.2709 114.42 11.7891 120.188 33.4482C120.188 33.4482 108.174 26.7113 108.172 14.6809C108.167 -7.81604 144.441 -5.99449 136.529 19.2709V19.2709Z" fill="black"/>
<path opacity="0.15" d="M136.529 105.425C136.529 105.425 114.42 97.9429 120.188 119.602C120.188 119.602 108.174 112.865 108.172 100.835C108.167 78.3378 144.441 80.1593 136.529 105.425V105.425Z" fill="black"/>
<path opacity="0.15" d="M6.70925 82.9767C6.70925 82.9767 -12.5161 85.3832 6.70925 120.519C6.70925 120.519 2.30345 117.444 -1.83532 113.299V123.888C-1.83532 123.888 -43.2766 78.6448 6.70925 82.9767Z" fill="black"/>
<path opacity="0.15" d="M3.59596 41.1261C3.59596 41.1261 -15.6294 43.5326 3.59596 78.6685C3.59596 78.6685 -0.809832 75.5934 -4.94861 71.4488V82.0377C-4.94861 82.0377 -46.3899 36.7942 3.59596 41.1261Z" fill="black"/>
<path opacity="0.7" d="M-2.49241 43.889C-2.49241 43.889 19.6167 36.4073 13.8491 58.0664C13.8491 58.0664 25.8623 51.3294 25.8649 39.2991C25.8698 16.8021 -10.404 18.6237 -2.49241 43.889V43.889Z" fill="black"/>
<path opacity="0.15" d="M4.72634 81.0675C4.72634 81.0675 26.8355 73.5858 21.0679 95.2448C21.0679 95.2448 33.0811 88.5079 33.0837 76.4776C33.0886 53.9806 -3.18525 55.8021 4.72634 81.0675V81.0675Z" fill="black"/>
<path opacity="0.4" d="M58.58 64.4901C58.58 64.4901 36.4709 57.0084 42.2385 78.6674C42.2385 78.6674 30.2253 71.9305 30.2227 59.9002C30.2177 37.4032 66.4916 39.2247 58.58 64.4901V64.4901Z" fill="black"/>
<path opacity="0.15" d="M55.744 19.2709C55.744 19.2709 33.6349 11.7891 39.4025 33.4482C39.4025 33.4482 27.3893 26.7113 27.3867 14.6809C27.3818 -7.81604 63.6556 -5.99449 55.744 19.2709V19.2709Z" fill="black"/>
<path opacity="0.7" d="M55.744 105.425C55.744 105.425 33.6349 97.9429 39.4025 119.602C39.4025 119.602 27.3893 112.865 27.3867 100.835C27.3818 78.3378 63.6556 80.1593 55.744 105.425V105.425Z" fill="#B60101"/>
<path opacity="0.15" d="M166.963 -0.723294C166.963 -0.723294 147.738 1.68326 166.963 36.8191C166.963 36.8191 162.557 33.7441 158.419 29.5994V40.1883C158.419 40.1883 116.977 -5.05512 166.963 -0.723294Z" fill="black"/>
<path opacity="0.15" d="M166.963 82.9767C166.963 82.9767 147.738 85.3832 166.963 120.519C166.963 120.519 162.557 117.444 158.419 113.299V123.888C158.419 123.888 116.977 78.6448 166.963 82.9767Z" fill="black"/>
<path opacity="0.7" d="M163.85 41.1258C163.85 41.1258 144.625 43.5324 163.85 78.6682C163.85 78.6682 159.444 75.5932 155.305 71.4485V82.0374C155.305 82.0374 113.864 36.794 163.85 41.1258Z" fill="#B60101"/>
<path opacity="0.15" d="M164.98 81.0675C164.98 81.0675 187.089 73.5858 181.322 95.2448C181.322 95.2448 193.335 88.5079 193.338 76.4776C193.342 53.9806 157.069 55.8021 164.98 81.0675V81.0675Z" fill="black"/>
</mask>
<g mask="url(#mask4_1039_1468)">
<path d="M44.9279 39.4331V28.2141H11.9673H0.6875V94.647H11.9673H44.9279V83.4279H11.9673V66.9424H44.9279V55.8218H11.9673V39.4331H44.9279Z" fill="#FF0000"/>
<mask id="mask5_1039_1468" style="mask-type:alpha" maskUnits="userSpaceOnUse" x="53" y="27" width="12" height="68">
<path d="M53.0898 27.8096H64.6018V94.2425H53.0898V27.8096Z" fill="black"/>
</mask>
<g mask="url(#mask5_1039_1468)">
<path d="M53.7656 28.2227H65.063V94.647H53.7656V28.2227Z" fill="#FF0000"/>
</g>
<mask id="mask6_1039_1468" style="mask-type:alpha" maskUnits="userSpaceOnUse" x="0" y="27" width="46" height="68">
<path d="M45.3501 39.0285V27.8096H11.7112H0.199219V94.2425H11.7112H45.3501V83.0234H11.7112V66.5378H45.3501V55.4173H11.7112V39.0285H45.3501Z" fill="white"/>
</mask>
<g mask="url(#mask6_1039_1468)">
</g>
<mask id="mask7_1039_1468" style="mask-type:alpha" maskUnits="userSpaceOnUse" x="70" y="43" width="43" height="52">
<path d="M81.4743 77.354C81.5325 80.097 82.5354 82.1257 84.4831 83.4401C86.4309 84.7559 88.8873 85.4117 91.8525 85.4117C93.0153 85.4117 94.1345 85.2974 95.2101 85.0688C96.2858 84.8416 97.2306 84.4687 98.0445 83.9544C98.8585 83.4401 99.5126 82.7972 100.007 82.0257C100.501 81.2543 100.748 80.3256 100.748 79.2398C100.748 78.3826 100.486 77.6254 99.9632 76.9682C99.4399 76.3125 98.5823 75.6967 97.3904 75.1253C96.1985 74.5552 94.6578 74.0252 92.7682 73.5395C90.8786 73.0551 88.5676 72.498 85.8349 71.8679C83.9163 71.4107 82.0994 70.8822 80.3842 70.2821C78.6691 69.6821 77.1865 68.8978 75.9364 67.9248C74.6864 66.9533 73.6834 65.7532 72.9276 64.3246C72.1718 62.8974 71.7648 61.1244 71.7067 59.0099C71.7067 56.0397 72.2444 53.5667 73.3201 51.5952C74.3957 49.6236 75.8347 48.0378 77.637 46.8377C79.4394 45.6376 81.518 44.7804 83.8727 44.2661C86.2274 43.7518 88.6548 43.4946 91.1549 43.4946C93.6549 43.4946 96.0533 43.7661 98.3498 44.309C100.646 44.8533 102.681 45.7233 104.455 46.9234C106.228 48.1235 107.696 49.7093 108.859 51.6809C110.022 53.6524 110.719 56.0669 110.952 58.9242H100.138C99.9632 56.4683 99.062 54.7668 97.4341 53.8239C95.8061 52.881 93.5968 52.4095 90.806 52.4095C88.6548 52.4095 86.8379 52.7095 85.3553 53.3096C83.8727 53.9096 83.1314 55.0968 83.1314 56.867C83.1314 58.5256 84.0762 59.7814 85.9658 60.6386C87.8554 61.4958 90.7188 62.3244 94.5561 63.1245C96.7073 63.6388 98.844 64.1831 100.966 64.7532C103.088 65.3246 104.978 66.1247 106.635 67.1533C108.292 68.182 109.629 69.5249 110.647 71.1822C111.664 72.8408 112.173 74.9538 112.173 77.5254C112.173 80.6113 111.606 83.2129 110.472 85.3259C109.339 87.4404 107.827 89.1705 105.937 90.512C104.048 91.8549 101.867 92.8136 99.3964 93.3836C96.9254 93.9537 94.3817 94.2408 91.7653 94.2408C89.0327 94.2408 86.4164 93.9408 83.9163 93.3408C81.4162 92.7407 79.2069 91.7849 77.2882 90.4691C75.3696 89.1548 73.8143 87.4132 72.6224 85.2402C71.4305 83.0686 70.7764 80.4399 70.6602 77.354H81.4744H81.4743Z" fill="black"/>
</mask>
<g mask="url(#mask7_1039_1468)">
<path d="M81.6167 77.7654C81.6738 80.5084 82.658 82.5371 84.5695 83.8515C86.481 85.1673 88.8917 85.8231 91.8017 85.8231C92.9428 85.8231 94.0412 85.7088 95.0968 85.4802C96.1524 85.253 97.0796 84.8801 97.8784 84.3658C98.6772 83.8515 99.3191 83.2086 99.8041 82.4371C100.289 81.6656 100.532 80.737 100.532 79.6512C100.532 78.794 100.275 78.0368 99.7613 77.3796C99.2478 76.7239 98.4062 76.1081 97.2365 75.5366C96.0668 74.9666 94.5547 74.4366 92.7003 73.9508C90.8459 73.4665 88.5779 72.9093 85.8961 72.2793C84.0132 71.8221 82.2301 71.2935 80.5469 70.6935C78.8637 70.0934 77.4087 69.3091 76.1819 68.3362C74.9552 67.3647 73.9709 66.1646 73.2292 64.736C72.4874 63.3087 72.088 61.5358 72.0309 59.4213C72.0309 56.4511 72.5587 53.9781 73.6143 52.0065C74.6699 50.035 76.0821 48.4492 77.8509 47.2491C79.6197 46.049 81.6595 45.1918 83.9704 44.6775C86.2813 44.1631 88.6635 43.906 91.117 43.906C93.5705 43.906 95.9242 44.1774 98.178 44.7203C100.432 45.2647 102.429 46.1347 104.169 47.3348C105.909 48.5348 107.35 50.1207 108.491 52.0923C109.632 54.0638 110.317 56.4782 110.545 59.3356H99.9325C99.7613 56.8797 98.8769 55.1782 97.2793 54.2353C95.6817 53.2924 93.5134 52.8209 90.7746 52.8209C88.6635 52.8209 86.8804 53.1209 85.4254 53.721C83.9705 54.321 83.2429 55.5082 83.2429 57.2783C83.2429 58.937 84.1701 60.1928 86.0245 61.05C87.879 61.9072 90.6891 62.7358 94.4549 63.5359C96.5661 64.0502 98.663 64.5945 100.746 65.1646C102.828 65.736 104.683 66.5361 106.309 67.5647C107.935 68.5933 109.247 69.9363 110.246 71.5935C111.244 73.2522 111.744 75.3652 111.744 77.9368C111.744 81.0227 111.187 83.6243 110.075 85.7373C108.962 87.8518 107.479 89.5818 105.624 90.9234C103.77 92.2663 101.63 93.2249 99.2051 93.795C96.7801 94.3651 94.2838 94.6522 91.7161 94.6522C89.0344 94.6522 86.4667 94.3522 84.0132 93.7521C81.5597 93.1521 79.3915 92.1963 77.5086 90.8805C75.6256 89.5661 74.0993 87.8246 72.9296 85.6516C71.7599 83.48 71.118 80.8513 71.0039 77.7654H81.6167Z" fill="#FF0000"/>
</g>
<mask id="mask8_1039_1468" style="mask-type:alpha" maskUnits="userSpaceOnUse" x="116" y="43" width="50" height="52">
<path d="M141.063 84.9364C133.713 84.9364 127.755 79.9153 127.755 73.7214H165.119C165.366 72.2771 165.517 70.7988 165.517 69.2811C165.517 55.2679 154.569 43.908 141.063 43.908C127.558 43.908 116.609 55.2678 116.609 69.2811C116.609 83.2944 127.558 94.6541 141.063 94.6541C151.475 94.6541 160.343 87.8907 163.871 78.3774H153.138C151.036 82.2398 146.435 84.9364 141.063 84.9364V84.9364ZM141.063 53.6256C148.413 53.6256 154.371 58.6468 154.371 64.8406H127.755C127.755 58.6467 133.713 53.6256 141.063 53.6256V53.6256Z" fill="black"/>
</mask>
<g mask="url(#mask8_1039_1468)">
<path d="M141.429 84.9091C134.188 84.9091 128.319 79.8879 128.319 73.6941H165.125C165.368 72.2497 165.517 70.7714 165.517 69.2538C165.517 55.2405 154.732 43.8806 141.429 43.8806C128.125 43.8806 117.34 55.2405 117.34 69.2538C117.34 83.2671 128.125 94.6268 141.429 94.6268C151.685 94.6268 160.421 87.8634 163.895 78.35H153.323C151.253 82.2124 146.72 84.9091 141.429 84.9091ZM141.429 53.5983C148.669 53.5983 154.538 58.6194 154.538 64.8133H128.319C128.319 58.6194 134.189 53.5983 141.429 53.5983Z" fill="#FF0000"/>
</g>
</g>
</g>
</g>
<path d="M4.832 14.24C5.55733 14.24 6.224 14.064 6.832 13.712C7.45067 13.3493 7.94133 12.8587 8.304 12.24C8.66667 11.6213 8.848 10.9493 8.848 10.224C8.848 9.49867 8.66667 8.82667 8.304 8.208C7.94133 7.58933 7.45067 7.104 6.832 6.752C6.224 6.38933 5.55733 6.208 4.832 6.208H3.088V14.24H4.832ZM1.152 4.272H4.864C5.93067 4.272 6.91733 4.53867 7.824 5.072C8.74133 5.60533 9.46667 6.33067 10 7.248C10.5333 8.15467 10.8 9.14667 10.8 10.224C10.8 11.3013 10.5333 12.2987 10 13.216C9.46667 14.1227 8.74133 14.8427 7.824 15.376C6.91733 15.9093 5.93067 16.176 4.864 16.176H1.152V4.272ZM14.572 4.272V16.176H12.652V4.272H14.572ZM28.1583 9.616C28.1796 9.76533 28.1903 9.92533 28.1903 10.096C28.1903 10.3947 28.1743 10.7413 28.1423 11.136C27.9716 12.7787 27.3849 14.048 26.3823 14.944C25.3796 15.8293 24.0516 16.2827 22.3983 16.304C21.1823 16.304 20.1209 16.0373 19.2143 15.504C18.3183 14.9707 17.6303 14.2453 17.1503 13.328C16.6809 12.4 16.4463 11.3653 16.4463 10.224C16.4463 9.09333 16.6809 8.06933 17.1503 7.152C17.6303 6.224 18.3183 5.49333 19.2143 4.96C20.1209 4.42667 21.1823 4.16 22.3983 4.16C23.6569 4.16 24.7183 4.43733 25.5823 4.992C26.4463 5.54667 27.0756 6.224 27.4703 7.024L25.7743 7.968C25.4969 7.44533 25.0703 7.00267 24.4943 6.64C23.9183 6.27733 23.2196 6.096 22.3983 6.096C21.5663 6.096 20.8409 6.27733 20.2223 6.64C19.6143 7.00267 19.1503 7.49867 18.8303 8.128C18.5103 8.74667 18.3503 9.44533 18.3503 10.224C18.3503 11.0133 18.5103 11.7227 18.8303 12.352C19.1503 12.9707 19.6143 13.4613 20.2223 13.824C20.8409 14.1867 21.5663 14.368 22.3983 14.368C24.4996 14.304 25.7263 13.3333 26.0783 11.456H22.6703V9.616H28.1583ZM32.1033 4.272V16.176H30.1833V4.272H32.1033ZM42.578 6.16H39.314V16.176H37.378V6.16H34.066V4.272H42.578V6.16ZM54.6929 16.176H52.6609L51.3649 13.072H45.9889L44.7089 16.176H42.6609L47.6209 4.272H49.7329L54.6929 16.176ZM50.4849 10.992L48.6929 6.608L46.8689 10.992H50.4849ZM58.306 14.272H64.05V16.176H56.37V4.272H58.306V14.272ZM81.4429 16.176H79.4109L78.1149 13.072H72.7389L71.4589 16.176H69.4109L74.3709 4.272H76.4829L81.4429 16.176ZM77.2349 10.992L75.4429 6.608L73.6189 10.992H77.2349ZM93.2989 9.616C93.3202 9.76533 93.3309 9.92533 93.3309 10.096C93.3309 10.3947 93.3149 10.7413 93.2829 11.136C93.1122 12.7787 92.5255 14.048 91.5229 14.944C90.5202 15.8293 89.1922 16.2827 87.5389 16.304C86.3229 16.304 85.2615 16.0373 84.3549 15.504C83.4589 14.9707 82.7709 14.2453 82.2909 13.328C81.8215 12.4 81.5869 11.3653 81.5869 10.224C81.5869 9.09333 81.8215 8.06933 82.2909 7.152C82.7709 6.224 83.4589 5.49333 84.3549 4.96C85.2615 4.42667 86.3229 4.16 87.5389 4.16C88.7975 4.16 89.8589 4.43733 90.7229 4.992C91.5869 5.54667 92.2162 6.224 92.6109 7.024L90.9149 7.968C90.6375 7.44533 90.2109 7.00267 89.6349 6.64C89.0589 6.27733 88.3602 6.096 87.5389 6.096C86.7069 6.096 85.9815 6.27733 85.3629 6.64C84.7549 7.00267 84.2909 7.49867 83.9709 8.128C83.6509 8.74667 83.4909 9.44533 83.4909 10.224C83.4909 11.0133 83.6509 11.7227 83.9709 12.352C84.2909 12.9707 84.7549 13.4613 85.3629 13.824C85.9815 14.1867 86.7069 14.368 87.5389 14.368C89.6402 14.304 90.8669 13.3333 91.2189 11.456H87.8109V9.616H93.2989ZM102.948 6.16H96.7078V9.104H102.436V11.008H96.7078V14.272H102.948V16.176H94.8038V4.272H102.948V6.16ZM115.846 16.176H113.35L106.822 6.928V16.176H104.87V4.272H107.302L113.926 13.504V4.272H115.846V16.176ZM123.505 16.304C122.342 16.304 121.313 16.032 120.417 15.488C119.531 14.944 118.843 14.208 118.353 13.28C117.873 12.352 117.633 11.3333 117.633 10.224C117.633 9.11467 117.873 8.096 118.353 7.168C118.843 6.24 119.531 5.504 120.417 4.96C121.313 4.416 122.342 4.144 123.505 4.144C124.305 4.144 125.057 4.304 125.761 4.624C126.475 4.93333 127.105 5.36533 127.649 5.92L126.385 7.36C126.043 7.008 125.606 6.73067 125.073 6.528C124.55 6.31467 124.022 6.208 123.489 6.208C122.699 6.208 122.006 6.38933 121.409 6.752C120.822 7.104 120.363 7.584 120.033 8.192C119.713 8.8 119.553 9.47733 119.553 10.224C119.553 10.9707 119.713 11.6533 120.033 12.272C120.363 12.88 120.822 13.3653 121.409 13.728C122.006 14.08 122.699 14.256 123.489 14.256C124.022 14.256 124.55 14.1493 125.073 13.936C125.606 13.7227 126.043 13.44 126.385 13.088L127.649 14.528C127.105 15.0827 126.475 15.52 125.761 15.84C125.057 16.1493 124.305 16.304 123.505 16.304ZM135.347 11.52V16.176H133.443V11.52L128.723 4.272H130.995L134.387 9.488L137.811 4.272H140.083L135.347 11.52Z" fill="#B20000"/>
<defs>
<filter id="filter0_i_1039_1468" x="0.621094" y="28.2141" width="164.898" height="70.4351" filterUnits="userSpaceOnUse" color-interpolation-filters="sRGB">
<feFlood flood-opacity="0" result="BackgroundImageFix"/>
<feBlend mode="normal" in="SourceGraphic" in2="BackgroundImageFix" result="shape"/>
<feColorMatrix in="SourceAlpha" type="matrix" values="0 0 0 0 0 0 0 0 0 0 0 0 0 0 0 0 0 0 127 0" result="hardAlpha"/>
<feOffset dy="7"/>
<feGaussianBlur stdDeviation="2"/>
<feComposite in2="hardAlpha" operator="arithmetic" k2="-1" k3="1"/>
<feColorMatrix type="matrix" values="0 0 0 0 0 0 0 0 0 0 0 0 0 0 0 0 0 0 0.8 0"/>
<feBlend mode="normal" in2="shape" result="effect1_innerShadow_1039_1468"/>
</filter>
<clipPath id="clip0_1039_1468">
<rect width="167" height="67" fill="white" transform="translate(0 28)"/>
</clipPath>
</defs>
</svg>
