<svg width="200" height="72" viewBox="0 0 200 72" fill="none" xmlns="http://www.w3.org/2000/svg">
<path d="M77.5228 56.4269L61.2332 44.6903L44.9438 56.4272L44.9436 23.8481L77.5225 23.848L77.5228 56.4269Z" fill="#182354"/>
<path d="M22.2893 23.848C17.9691 23.848 13.8257 25.5642 10.7709 28.6191C7.71597 31.674 5.99976 35.8173 5.99976 40.1376C5.99976 44.4578 7.71597 48.6012 10.7709 51.6561C13.8257 54.7109 17.9691 56.4272 22.2893 56.4272H38.5789V23.848H22.2893Z" fill="#182354"/>
<path d="M178.064 23.848L161.774 56.4272H194.353L178.064 23.848Z" fill="#182354"/>
<path d="M155.41 56.4273L139.12 44.6907L122.831 56.4275L122.831 23.8485L155.41 23.8484L155.41 56.4273Z" fill="#182354"/>
<path d="M143.549 14.0011H134.692V19.8453H143.549V14.0011Z" fill="#182354"/>
<path d="M116.466 56.4273L100.176 44.6907L83.8869 56.4275L83.8867 23.8485L116.466 23.8484L116.466 56.4273Z" fill="#182354"/>
<path d="M104.605 14.0011H95.7483V19.8453H104.605V14.0011Z" fill="#182354"/>
</svg>
