<svg width="120" height="44" viewBox="0 0 120 44" fill="none" xmlns="http://www.w3.org/2000/svg">
<g clip-path="url(#clip0_74_2534)">
<path d="M16.3465 19.2811C15.8645 19.7681 15.1013 20.0522 14.2578 20.0522C13.3339 20.0522 12.6912 19.8087 12.1289 19.1188V19.9304H10V8.08115H12.1289V12.058C12.6912 11.4087 13.3339 11.2058 14.2176 11.2058C15.0611 11.2058 15.8243 11.4898 16.3063 11.9768C17.1498 12.829 17.19 14.3304 17.19 15.629C17.19 16.8869 17.19 18.3884 16.3465 19.2811ZM13.6151 13.113C12.3297 13.113 12.169 14.1681 12.169 15.5884C12.169 17.0087 12.3297 18.1043 13.6151 18.1043C14.9004 18.1043 15.0611 17.0087 15.0611 15.5884C15.0611 14.1681 14.9004 13.113 13.6151 13.113Z" fill="white"/>
<path d="M22.1708 19.971C20.4034 19.971 19.6402 18.713 19.6402 17.4956V8.08115H21.7691V17.3333C21.7691 17.8609 21.9699 18.1043 22.5323 18.1043H23.3758V19.9304H22.1708V19.971Z" fill="white"/>
<path d="M30.5658 19.9706V19.159C30.0034 19.7677 29.2001 20.0518 28.4369 20.0518C27.5934 20.0518 26.8704 19.7677 26.3884 19.2807C25.7055 18.5909 25.5047 17.7793 25.5047 16.8054V11.246H27.6737V16.5213C27.6737 17.6981 28.4369 18.1039 29.0796 18.1039C29.7624 18.1039 30.5256 17.6981 30.5256 16.5213V11.246H32.6545V19.93H30.5658V19.9706Z" fill="white"/>
<path d="M37.2737 16.2779C37.2737 17.4141 37.9566 18.2257 39.1616 18.2257C40.0855 18.2257 40.5675 17.9416 41.1298 17.4141L42.4152 18.7126C41.5315 19.6054 40.688 20.0923 39.1616 20.0923C37.1131 20.0923 35.185 19.159 35.185 15.6286C35.185 12.788 36.7114 11.2054 38.9206 11.2054C41.3307 11.2054 42.6562 12.9909 42.6562 15.3445V16.3184H37.2737V16.2779ZM40.3265 13.8431C40.0855 13.3155 39.6035 12.9503 38.8804 12.9503C38.1574 12.9503 37.6754 13.3155 37.4344 13.8431C37.3139 14.1677 37.2336 14.4112 37.2336 14.7764H40.5273C40.5273 14.4112 40.447 14.1677 40.3265 13.8431Z" fill="white"/>
<path d="M51.4528 19.2808C50.9708 19.7677 50.2076 20.0518 49.3641 20.0518C48.4804 20.0518 47.8378 19.8083 47.2754 19.1996V23.1764H45.1465V11.246H47.2352V12.0576C47.8378 11.4083 48.4804 11.1242 49.3641 11.1242C50.2076 11.1242 50.9708 11.4083 51.4528 11.8953C52.2963 12.7474 52.3365 14.2489 52.3365 15.5474C52.3365 16.8866 52.2963 18.388 51.4528 19.2808ZM48.7214 13.1127C47.4361 13.1127 47.2754 14.1677 47.2754 15.588C47.2754 17.0083 47.4361 18.104 48.7214 18.104C50.0068 18.104 50.1675 17.0083 50.1675 15.588C50.1675 14.1677 50.0068 13.1127 48.7214 13.1127Z" fill="white"/>
<path d="M60.8119 18.9967C60.2897 19.5648 59.406 20.0518 58.1207 20.0518C56.8353 20.0518 55.9918 19.5648 55.4696 18.9967C54.7064 18.1851 54.5056 17.2112 54.5056 15.588C54.5056 14.0054 54.7064 13.0315 55.4696 12.2199C55.9918 11.6518 56.8755 11.1648 58.1207 11.1648C59.406 11.1648 60.2495 11.6518 60.8119 12.2199C61.5751 13.0315 61.7759 14.0054 61.7759 15.588C61.7759 17.1706 61.6152 18.1851 60.8119 18.9967ZM59.165 13.4779C58.924 13.2344 58.6027 13.1126 58.1608 13.1126C57.719 13.1126 57.3976 13.2344 57.1566 13.4779C56.7148 13.9242 56.6746 14.6953 56.6746 15.588C56.6746 16.4808 56.7148 17.2518 57.1566 17.6982C57.3976 17.9416 57.719 18.0634 58.1608 18.0634C58.6027 18.0634 58.924 17.9416 59.165 17.6982C59.6069 17.2518 59.647 16.4808 59.647 15.588C59.647 14.6953 59.6069 13.9242 59.165 13.4779Z" fill="white"/>
<path d="M64.3065 9.78551V8H66.5157V9.78551H64.3065ZM64.3466 19.971V11.2464H66.4755V19.9304H64.3466V19.971Z" fill="white"/>
<path d="M74.3885 19.9706V14.6953C74.3885 13.5184 73.6253 13.1126 72.9826 13.1126C72.2998 13.1126 71.5366 13.5184 71.5366 14.6953V19.9706H69.4077V11.246H71.4964V12.0576C72.0588 11.4489 72.8621 11.1648 73.6253 11.1648C74.4688 11.1648 75.1918 11.4489 75.6739 11.9358C76.3567 12.6257 76.5575 13.4373 76.5575 14.4112V19.9706H74.3885Z" fill="white"/>
<path d="M82.0204 19.9709C80.253 19.9709 79.53 18.7129 79.53 17.4955V13.1535H78.6061V11.4897H79.53V8.93321H81.6589V11.4897H83.1852V13.1535H81.6589V17.3332C81.6589 17.8202 81.8999 18.1042 82.422 18.1042H83.1852V19.9303H82.0204V19.9709Z" fill="white"/>
<path d="M28.5975 32.9159C28.2761 33.2405 27.754 33.4434 27.1515 33.4434C26.5088 33.4434 25.9866 33.2811 25.5046 32.6724V35.9999H24.6611V27.4376H25.5046V28.1275C25.9866 27.5188 26.5088 27.3564 27.1515 27.3564C27.754 27.3564 28.2761 27.5593 28.5975 27.884C29.2 28.4927 29.3205 29.4666 29.3205 30.3999C29.3205 31.2927 29.2 32.3072 28.5975 32.9159ZM26.9908 28.1275C25.7054 28.1275 25.5046 29.2231 25.5046 30.3999C25.5046 31.5362 25.7054 32.6724 26.9908 32.6724C28.2761 32.6724 28.4368 31.5767 28.4368 30.3999C28.477 29.2231 28.2761 28.1275 26.9908 28.1275Z" fill="white"/>
<path d="M34.5021 33.3622V32.7941C34.0201 33.2811 33.5782 33.4434 32.815 33.4434C32.0117 33.4434 31.5297 33.2811 31.1682 32.9159C30.887 32.6318 30.7263 32.1854 30.7263 31.6985C30.7263 30.6434 31.4493 29.9941 32.7347 29.9941H34.5021V29.426C34.5021 28.5738 34.0602 28.1275 33.0159 28.1275C32.2527 28.1275 31.8912 28.2898 31.5297 28.8173L30.9272 28.2898C31.4493 27.5999 32.0518 27.397 33.0159 27.397C34.5824 27.397 35.3456 28.0869 35.3456 29.3854V33.4028H34.5021V33.3622ZM34.5021 30.6028H32.8552C31.9715 30.6028 31.5297 30.968 31.5297 31.6579C31.5297 32.3477 31.9313 32.6724 32.8954 32.6724C33.3774 32.6724 33.8192 32.6318 34.2209 32.2666C34.4217 32.0637 34.5021 31.7391 34.5021 31.2521V30.6028Z" fill="white"/>
<path d="M40.6879 28.5738C40.3666 28.2492 40.1256 28.1275 39.6837 28.1275C38.8402 28.1275 38.2779 28.8173 38.2779 29.7101V33.3622H37.4344V27.4376H38.2779V28.168C38.5992 27.6811 39.2419 27.3564 39.9247 27.3564C40.4871 27.3564 40.9289 27.4782 41.3306 27.9246L40.6879 28.5738Z" fill="white"/>
<path d="M44.1021 33.3625C43.098 33.3625 42.6159 32.632 42.6159 31.7799V28.1277H41.8929V27.4784H42.6159V25.6117H43.4595V27.4784H44.7047V28.1277H43.4595V31.7393C43.4595 32.2668 43.7005 32.5914 44.2628 32.5914H44.7047V33.3219H44.1021V33.3625Z" fill="white"/>
<path d="M50.1675 33.3622V29.7101C50.1675 28.655 49.6051 28.1275 48.7214 28.1275C47.8377 28.1275 47.2754 28.655 47.2754 29.7101V33.3622H46.4319V27.4376H47.2754V28.0869C47.6771 27.5999 48.2796 27.3564 48.9223 27.3564C49.5649 27.3564 50.047 27.5593 50.4085 27.9246C50.8101 28.3304 51.011 28.8985 51.011 29.5883V33.3622H50.1675Z" fill="white"/>
<path d="M53.6218 30.6028C53.6218 31.9014 54.2243 32.6318 55.349 32.6318C56.0318 32.6318 56.4335 32.4289 56.8754 31.942L57.4779 32.4695C56.8754 33.0782 56.3532 33.4028 55.349 33.4028C53.7825 33.4028 52.7783 32.4695 52.7783 30.3594C52.7783 28.4521 53.7021 27.3159 55.1883 27.3159C56.7147 27.3159 57.5984 28.4115 57.5984 30.197V30.6028H53.6218ZM56.554 28.9796C56.313 28.4521 55.7908 28.0869 55.1883 28.0869C54.5858 28.0869 54.0636 28.4521 53.8226 28.9796C53.7021 29.3043 53.662 29.4666 53.662 29.9536H56.7549C56.7147 29.4666 56.6745 29.3043 56.554 28.9796Z" fill="white"/>
<path d="M62.6997 28.5738C62.3783 28.2492 62.1373 28.1275 61.6955 28.1275C60.852 28.1275 60.2896 28.8173 60.2896 29.7101V33.3622H59.4059V27.4376H60.2495V28.168C60.5708 27.6811 61.2135 27.3564 61.8963 27.3564C62.4587 27.3564 62.9005 27.4782 63.3022 27.9246L62.6997 28.5738Z" fill="white"/>
<path d="M66.1541 33.4028C65.1499 33.4028 64.3867 33.1593 63.744 32.5506L64.3063 31.9825C64.7884 32.4695 65.3909 32.6724 66.1139 32.6724C67.0779 32.6724 67.6804 32.3072 67.6804 31.6173C67.6804 31.0898 67.3992 30.8057 66.7164 30.7651L65.7524 30.684C64.6277 30.6028 63.985 30.0753 63.985 29.1014C63.985 28.0057 64.9089 27.3564 66.1541 27.3564C66.9976 27.3564 67.7206 27.5593 68.2829 28.0057L67.7206 28.5738C67.3189 28.2492 66.7566 28.0869 66.1541 28.0869C65.3105 28.0869 64.8285 28.4521 64.8285 29.0608C64.8285 29.5477 65.1097 29.8724 65.8729 29.913L66.7967 29.9941C67.8411 30.0753 68.5239 30.4811 68.5239 31.5767C68.5239 32.7535 67.5599 33.4028 66.1541 33.4028Z" fill="white"/>
<path d="M96.3601 31.5361C94.0304 33.8897 90.2547 33.8897 87.9651 31.5361C85.6354 29.1825 85.6354 25.4086 87.9651 23.0549L100.136 10.7593C102.466 8.40567 106.241 8.40567 108.531 10.7593C110.861 13.1129 110.861 16.8868 108.531 19.2405L96.3601 31.5361Z" fill="white"/>
<path d="M108.531 10.7593C110.861 13.1129 110.861 16.8868 108.531 19.2405C106.201 21.5941 102.425 21.5941 100.136 19.2405C97.8061 16.8868 97.8061 13.0723 100.136 10.7593C102.425 8.40567 106.201 8.40567 108.531 10.7593Z" fill="#0054A7"/>
</g>
<defs>
<clipPath id="clip0_74_2534">
<rect width="100.258" height="28" fill="white" transform="translate(10 8)"/>
</clipPath>
</defs>
</svg>
