<svg width="100" height="44" viewBox="0 0 100 44" fill="none" xmlns="http://www.w3.org/2000/svg">
<g clip-path="url(#clip0_74_2559)">
<path d="M77.647 29.2318H76.4987V31.1347H74.0628V31.8528H81.5443V31.1347H77.647V29.2318Z" fill="white"/>
<path d="M88.8168 29.2686V27.3297H87.6337V33.0745H88.8168V29.9867H89.9999V29.2686H88.8168Z" fill="white"/>
<path d="M42.5704 28.1914H45.0411V28.6941C45.0411 29.8071 44.7279 31.5305 42.5008 32.3564V33.1463C45.5978 32.2845 46.3634 30.0944 46.3634 28.9095V27.4733H42.5704V28.1914Z" fill="white"/>
<path d="M86.416 31.6742V30.9561H84.3281C83.9106 30.9561 83.5626 30.597 83.5626 30.1662V28.1914H86.416V27.4733H82.3795V30.1303C82.3795 30.992 83.0406 31.6742 83.8758 31.6742H86.416Z" fill="white"/>
<path d="M79.4214 29.6994C79.4214 30.0226 79.317 30.3098 79.143 30.5611H80.3262C80.5002 30.3098 80.6046 30.0226 80.6046 29.6994V27.4733H74.7933V28.1914H79.4562V29.6994H79.4214Z" fill="white"/>
<path d="M84.3629 34.1156V32.823H83.1798V34.0797C83.1798 34.9414 83.841 35.6236 84.6761 35.6236H88.991V34.9055H85.1633C84.7109 34.9055 84.3629 34.5464 84.3629 34.1156Z" fill="white"/>
<path d="M77.786 32.104C76.3941 32.104 75.2806 33.0016 75.2806 34.0787C75.2806 35.1559 76.3941 36.0535 77.786 36.0535C79.1779 36.0535 80.2914 35.1559 80.2914 34.0787C80.2914 32.9657 79.1779 32.104 77.786 32.104ZM77.786 35.2995C77.0553 35.2995 76.4637 34.725 76.4637 34.0428C76.4637 33.3606 77.0553 32.7862 77.786 32.7862C78.5168 32.7862 79.1083 33.3606 79.1083 34.0428C79.1431 34.7609 78.5516 35.2995 77.786 35.2995Z" fill="white"/>
<path d="M22.736 31.9252H21.5529V34.0436H18.0035V34.7617H26.2854V34.0436H22.736V31.9252Z" fill="white"/>
<path d="M10 31.6371H13.3754V32.1397C12.2619 32.3551 11.4615 33.1091 11.4615 34.0427C11.4615 35.1198 12.575 36.0174 13.9669 36.0174C15.3589 36.0174 16.4724 35.1198 16.4724 34.0427C16.4724 33.1091 15.6372 32.3551 14.5585 32.1397V31.6371H17.9339V30.919H10V31.6371ZM15.2893 34.0427C15.2893 34.7249 14.6977 35.2993 13.9669 35.2993C13.2362 35.2993 12.6446 34.7249 12.6446 34.0427C12.6446 33.3605 13.2362 32.786 13.9669 32.786C14.6977 32.786 15.2893 33.3605 15.2893 34.0427Z" fill="white"/>
<path d="M73.6103 31.1358H66.1636V31.8539H73.6103V31.1358Z" fill="white"/>
<path d="M69.887 32.104C68.4951 32.104 67.3816 33.0016 67.3816 34.0787C67.3816 35.1559 68.4951 36.0535 69.887 36.0535C71.2789 36.0535 72.3925 35.1559 72.3925 34.0787C72.3925 32.9657 71.2789 32.104 69.887 32.104ZM69.887 35.2995C69.1563 35.2995 68.5647 34.725 68.5647 34.0428C68.5647 33.3606 69.1563 32.7862 69.887 32.7862C70.6178 32.7862 71.2093 33.3606 71.2093 34.0428C71.2441 34.7609 70.6178 35.2995 69.887 35.2995Z" fill="white"/>
<path d="M67.625 29.1956C67.625 30.1291 68.6341 30.8831 69.9217 30.8831C71.1744 30.8831 72.2183 30.1291 72.2183 29.1956C72.2183 28.8365 72.0443 28.4775 71.8007 28.2261H72.7751V27.508H70.5132V27.0054H69.3301V27.508H66.929V28.2261H68.0774C67.7642 28.5134 67.625 28.8365 67.625 29.1956ZM69.8869 30.165C69.2605 30.165 68.7733 29.6982 68.7733 29.1597C68.7733 28.5852 69.2605 28.1543 69.8869 28.1543C70.5132 28.1543 71.0004 28.6211 71.0004 29.1597C71.0004 29.7341 70.5132 30.165 69.8869 30.165Z" fill="white"/>
<path d="M64.9804 27.3297H63.7972V33.0745H64.9804V27.3297Z" fill="white"/>
<path d="M55.8287 28.8003H54.4716C54.1932 27.9027 53.3233 27.2564 52.3141 27.2564C51.0614 27.2564 50.0523 28.2618 50.0523 29.4825C50.0523 30.7033 51.0614 31.7086 52.3141 31.7086C53.5321 31.7086 54.5412 30.7392 54.576 29.5184H55.8287V31.8522H57.0118V27.3282H55.8287V28.8003ZM52.3489 30.9905C51.7574 30.9905 51.2702 30.3083 51.2702 29.4825C51.2702 28.6567 51.7574 27.9745 52.3489 27.9745C52.9405 27.9745 53.4277 28.6567 53.4277 29.4825C53.4277 30.3083 52.9405 30.9905 52.3489 30.9905Z" fill="white"/>
<path d="M60.5263 34.1156V32.823H59.3431V34.0797C59.3431 34.9414 60.0043 35.6236 60.8394 35.6236H65.1544V34.9055H61.3266C60.8742 34.9055 60.5263 34.5464 60.5263 34.1156Z" fill="white"/>
<path d="M28.8605 34.1156V32.823H27.6773V34.0797C27.6773 34.9414 28.3385 35.6236 29.1736 35.6236H33.4886V34.9055H29.6608C29.2084 34.9055 28.8605 34.5464 28.8605 34.1156Z" fill="white"/>
<path d="M55.8286 33.2534H52.7316V32.3199H51.5485V34.0792C51.5485 34.9409 52.2096 35.6231 53.0448 35.6231H57.0117V32.3558H55.8286V33.2534ZM53.4971 34.905C53.0796 34.905 52.7316 34.546 52.7316 34.1151V33.9715H55.8286V34.905H53.4971Z" fill="white"/>
<path d="M60.561 30.0226C60.9438 30.7765 61.6745 31.5665 62.9968 31.9973V31.2074C61.3613 30.4175 61.1874 29.0172 61.1874 28.3709V28.1914H62.788V27.4733H58.3687V28.1914H59.9346V28.3709C59.9346 29.0172 59.7606 30.3816 58.1252 31.2074V31.9973C59.4127 31.5665 60.1434 30.8125 60.561 30.0226Z" fill="white"/>
<path d="M13.9668 29.0534C14.454 29.6638 15.3935 30.31 16.9942 30.6332V29.8433C15.2891 29.4842 14.7324 28.5866 14.5236 28.084H16.855V27.3659H11.0438V28.084H13.3753C13.2013 28.5507 12.6097 29.4842 10.9046 29.8433V30.6332C12.5401 30.31 13.4449 29.6279 13.9668 29.0534Z" fill="white"/>
<path d="M49.0083 27.3297H47.8251V35.5878H49.0083V27.3297Z" fill="white"/>
<path d="M29.7998 31.8537V29.6994H30.635V33.0745H31.6789V27.3297H30.635V28.9813H29.7998V27.4733H28.7559V28.9813H27.538V27.4733H26.494V30.8484C26.494 31.4228 26.9464 31.8537 27.4684 31.8537H29.7998ZM28.0251 31.1356C27.7468 31.1356 27.5032 30.8843 27.5032 30.597V29.6635H28.7211V31.0997H28.0251V31.1356Z" fill="white"/>
<path d="M33.2797 27.3297H32.2357V33.0745H33.2797V27.3297Z" fill="white"/>
<path d="M40.2391 29.3045H38.7428V30.0226H40.2391V35.6237H41.4223V27.3297H40.2391V29.3045Z" fill="white"/>
<path d="M37.4904 29.3755V28.6575H39.0911V27.9394H37.4904V27.2213H36.2725V27.9394H34.637V28.6575H36.2725V29.3755C36.2725 29.9141 36.0985 31.5657 34.4282 32.3556V33.1455C35.6461 32.7865 36.4117 32.0684 36.8988 31.2785C37.3512 32.0684 38.1516 32.7865 39.3347 33.1455V32.3556C37.6644 31.6016 37.4904 29.9141 37.4904 29.3755Z" fill="white"/>
<path d="M22.1442 29.843C22.7706 30.9561 23.9189 31.8178 25.3804 32.2127V31.3151C23.7101 30.6688 22.7706 29.4481 22.7706 27.7965V27.4733H21.5179V27.7965C21.5179 29.4481 20.6131 30.6688 18.9428 31.3151V32.2127C20.3695 31.8178 21.5179 30.9561 22.1442 29.843Z" fill="white"/>
<path d="M71.3483 21.3693V14.4397L67.3814 21.1897H64.6672L60.7002 14.4397V21.3693H57.6032V9.44891H60.8742L66.0939 18.2456L71.3483 9.44891H74.5149V21.3693H71.3483Z" fill="white"/>
<path d="M52.2793 13.8652H46.1201C45.8765 13.8652 45.6329 13.7575 45.4589 13.578C45.2849 13.3984 45.2153 13.183 45.1805 12.9676C45.1805 12.6803 45.2849 12.4649 45.4589 12.3213C45.6329 12.1418 45.8417 12.0341 46.0853 12.0341H55.4807V9.44891H45.7373C44.589 9.44891 43.6842 9.80796 43.0231 10.4901C42.3271 11.2082 41.9792 12.0341 41.9792 13.0394C41.9792 14.0447 42.3271 14.9064 43.0231 15.6245C43.719 16.3426 44.6238 16.7017 45.7373 16.7017H52.2097C52.4881 16.7017 52.7317 16.8094 52.9057 17.0248C53.0796 17.2402 53.184 17.4557 53.184 17.7429C53.184 18.0301 53.0796 18.2815 52.8709 18.4969C52.6621 18.7123 52.4185 18.82 52.1401 18.82H42.6055V21.3693H52.2793C53.4276 21.3693 54.3324 20.9743 55.0631 20.2203C55.7939 19.4663 56.1418 18.5687 56.1418 17.5275C56.1418 16.5221 55.7939 15.6604 55.0631 14.9064C54.3672 14.2242 53.4276 13.8652 52.2793 13.8652Z" fill="white"/>
<path d="M89.1995 11.9981V9.44891H76.4287V21.3693H89.1995V18.7841H79.5953V16.7017H89.1995V14.1165H79.5953V11.9981H89.1995Z" fill="white"/>
<path d="M25.5196 19.7529C26.4243 21.3327 28.895 23.6306 32.2355 23.8101C34.1146 23.9178 35.8893 23.4151 37.316 22.3739C39.5083 20.8659 40.8306 18.2808 40.6914 15.5161C40.5522 12.8233 38.2555 10.4536 35.9589 10.5613C34.6018 10.6331 33.4187 11.3153 32.7923 12.4642C33.7318 12.6078 35.089 13.1823 35.4717 14.6903C35.8545 16.1983 34.7758 17.814 33.5231 18.2449C33.4883 18.2808 33.5231 18.3526 33.5927 18.3526C35.4021 18.1013 37.4552 16.8446 37.0376 13.4336C37.5248 15.2289 37.1768 17.5268 35.8545 19.0707C34.9846 20.076 33.5927 20.7941 31.7484 20.6864C31.644 20.6864 31.5744 20.83 31.7136 20.8659C33.6274 21.2968 35.3673 20.6864 36.5505 19.8247C37.9424 18.8193 38.7427 17.1318 38.8471 15.3725C39.0559 17.9935 38.012 20.3992 35.2281 21.8353C32.0963 23.451 27.6074 22.0867 25.6588 19.6092C25.5544 19.4297 25.3804 19.5374 25.5196 19.7529Z" fill="white"/>
<path d="M39.8564 11.0644C38.9517 9.52054 36.4463 7.22264 33.1057 7.00721C31.2266 6.8995 29.4519 7.40216 28.0252 8.4434C25.7982 9.9514 24.5106 12.5365 24.6498 15.3012C24.789 18.0659 27.0857 20.3638 29.3823 20.256C30.7394 20.1842 31.9226 19.502 32.5489 18.3531C31.6094 18.2095 30.2523 17.635 29.8695 16.127C29.4867 14.619 30.5654 13.0033 31.8182 12.5724C31.853 12.5365 31.8182 12.4647 31.7486 12.4647C29.9391 12.7161 27.886 13.9727 28.3036 17.3837C27.8164 15.5884 28.1644 13.2905 29.4867 11.7466C30.3567 10.7413 31.7486 10.0232 33.5928 10.1309C33.6972 10.1309 33.7668 9.9873 33.6276 9.9514C31.7138 9.52054 29.9739 10.1309 28.756 10.9926C27.3641 11.998 26.5637 13.6855 26.4593 15.4089C26.2505 12.7879 27.2945 10.4182 30.0783 8.94606C33.2101 7.33035 37.699 8.69473 39.6476 11.1722C39.8216 11.3876 39.9608 11.2799 39.8564 11.0644Z" fill="white"/>
<path d="M17.7947 15.05L25.3458 21.3693H20.8917L13.8277 15.6963V21.3693H10.6611V9.44891H13.8277V14.5115L20.3349 9.44891H24.6498L17.7947 15.05Z" fill="white"/>
</g>
<defs>
<clipPath id="clip0_74_2559">
<rect width="80" height="29.011" fill="white" transform="translate(10 7.00586)"/>
</clipPath>
</defs>
</svg>
