<svg width="1920" height="165" viewBox="0 0 1920 165" fill="none" xmlns="http://www.w3.org/2000/svg">
<g clip-path="url(#clip0_334_1473)">
<path d="M223.9 136.3H281.263V111.92H223.9V136.3ZM259.943 133.3H254.081V114.92H259.943V133.3ZM262.943 114.916H268.8V133.3H262.936L262.943 114.916ZM251.076 133.3H245.214V114.92H251.076V133.3ZM242.214 133.3H236.352V114.92H242.214V133.3ZM278.258 133.3H271.8V114.92H278.257L278.258 133.3ZM226.9 114.92H233.357V133.3H226.9V114.92Z" fill="#316BEB"/>
<path d="M359.79 151.155L344.971 143.525C343.866 142.958 342.642 142.661 341.4 142.66H302.472V135.26L302.639 125.26V103.3H280.92C280.789 103.22 280.647 103.152 280.514 103.075V55.74H273.4L269.159 52.727V51.275H274.835V48.048H260.485V51.275H266.162V52.675H254.811V99C252.742 99.141 250.66 99.351 248.59 99.628V55.74H241.48L237.238 52.726V51.275H242.915V48.048H228.562V51.275H234.238V52.675H222.887V106.481C221.437 107.104 220.022 107.805 218.648 108.581L217.896 109.014V149.563H191.833C191.673 148.423 191.209 147.348 190.491 146.448C189.772 145.549 188.825 144.86 187.749 144.452C186.656 143.981 184.043 143.271 180.087 142.194C169.165 139.222 148.835 133.694 132.759 125.503C111.153 114.503 109.859 114.479 107.318 114.515H106.99C104.424 114.464 103.152 114.503 81.549 125.503C65.473 133.689 45.143 139.222 34.221 142.194C30.265 143.271 27.651 143.981 26.559 144.452C25.4827 144.86 24.5358 145.549 23.8174 146.448C23.0989 147.348 22.6353 148.423 22.475 149.563H0V152.563H60.073C60.382 152.563 63.115 152.64 64.214 154.172C64.833 155.035 64.863 156.34 64.305 158.049C63.7749 159.527 63.0756 160.939 62.221 162.256L60.821 164.538H70.936L71.33 163.644C73.2448 159.598 75.7576 155.863 78.784 152.565H135.512C138.394 156.02 140.911 159.763 143.022 163.736L143.444 164.536H153.486L152.086 162.253C151.23 160.937 150.53 159.526 150 158.048C149.441 156.339 149.472 155.034 150.091 154.17C151.191 152.639 153.922 152.564 154.214 152.562H217.9V164.536H302.476V159.021H310.012C309.878 159.427 309.807 159.851 309.801 160.278C309.789 160.898 309.913 161.512 310.164 162.079C310.414 162.646 310.786 163.151 311.252 163.56C311.718 163.968 312.268 164.27 312.863 164.444C313.457 164.618 314.083 164.66 314.696 164.568C315.309 164.475 315.894 164.249 316.41 163.907C316.927 163.565 317.363 163.114 317.687 162.585C318.011 162.057 318.216 161.465 318.288 160.849C318.359 160.233 318.296 159.609 318.101 159.021H331.523C331.389 159.427 331.318 159.851 331.312 160.278C331.303 160.843 331.407 161.403 331.617 161.927C331.827 162.451 332.139 162.929 332.536 163.331C332.932 163.733 333.404 164.053 333.925 164.271C334.446 164.489 335.005 164.601 335.569 164.601C336.134 164.601 336.693 164.489 337.214 164.271C337.735 164.053 338.207 163.733 338.603 163.331C339 162.929 339.312 162.451 339.522 161.927C339.732 161.403 339.836 160.843 339.827 160.278C339.821 159.851 339.75 159.427 339.616 159.021H357.884C358.818 159.021 359.724 158.707 360.458 158.13C361.192 157.552 361.711 156.745 361.931 155.838C362.15 154.93 362.059 153.975 361.671 153.126C361.283 152.277 360.62 151.582 359.79 151.155V151.155ZM81.873 149.563C88.8305 143.387 97.8524 140.048 107.154 140.205C116.456 140.048 125.478 143.387 132.436 149.563H81.873ZM154.201 149.563C153.139 149.574 149.526 149.815 147.656 152.424C146.449 154.107 146.28 156.314 147.156 158.981C147.449 159.86 147.81 160.715 148.235 161.538H145.248C144.085 159.428 140.773 153.686 137.258 150.025C133.363 145.973 128.691 142.749 123.52 140.546C118.35 138.344 112.788 137.207 107.167 137.206C101.547 137.205 95.9847 138.338 90.8131 140.539C85.6415 142.739 80.9674 145.961 77.071 150.011C73.8167 153.423 71.0991 157.31 69.011 161.538H66.081C66.5063 160.715 66.8671 159.86 67.16 158.981C68.032 156.314 67.86 154.107 66.655 152.424C64.785 149.815 61.173 149.574 60.094 149.563H25.521C25.6784 149.022 25.9621 148.527 26.3486 148.118C26.7351 147.709 27.2134 147.397 27.744 147.209C28.644 146.822 31.452 146.058 35.008 145.09C46.034 142.09 66.559 136.504 82.908 128.178C103.394 117.746 105.038 117.515 106.853 117.515H107.325C109.17 117.515 110.436 117.504 131.395 128.177C147.747 136.503 168.271 142.088 179.295 145.089C182.85 146.057 185.659 146.821 186.558 147.208C187.089 147.396 187.567 147.708 187.954 148.117C188.341 148.526 188.625 149.022 188.783 149.562L154.201 149.563ZM314.055 161.538C313.806 161.538 313.563 161.465 313.356 161.326C313.149 161.188 312.987 160.992 312.892 160.762C312.797 160.532 312.772 160.279 312.82 160.035C312.868 159.791 312.988 159.567 313.164 159.391C313.34 159.215 313.564 159.095 313.808 159.046C314.052 158.998 314.305 159.022 314.535 159.118C314.765 159.213 314.962 159.374 315.1 159.581C315.238 159.788 315.312 160.031 315.312 160.28C315.311 160.613 315.179 160.933 314.943 161.168C314.708 161.404 314.388 161.536 314.055 161.537V161.538ZM335.569 161.538C335.32 161.538 335.077 161.464 334.87 161.326C334.663 161.188 334.502 160.991 334.407 160.761C334.312 160.532 334.287 160.279 334.335 160.035C334.384 159.791 334.504 159.566 334.679 159.39C334.855 159.214 335.08 159.095 335.324 159.046C335.568 158.998 335.821 159.023 336.05 159.118C336.28 159.213 336.477 159.374 336.615 159.581C336.753 159.788 336.827 160.031 336.827 160.28C336.826 160.613 336.694 160.933 336.458 161.169C336.222 161.404 335.902 161.537 335.569 161.537V161.538ZM343.599 146.194L353.019 151.045H340.075V145.66H341.4C342.165 145.661 342.919 145.844 343.6 146.193L343.599 146.194ZM312.075 151.045V145.66H323.075V151.044L312.075 151.045ZM326.075 145.661H337.075V151.045H326.075V145.661ZM309.075 145.661V151.045H302.475V145.66L309.075 145.661ZM257.811 55.671H268.127L272.446 58.74H277.514V101.613C272.014 99.366 265.074 98.607 257.814 98.845L257.811 55.671ZM225.887 55.671H236.2L240.52 58.74H245.587V100.08C238.867 101.158 232.269 102.89 225.887 105.254V55.671ZM220.9 110.765C226.414 107.807 236.893 104.237 248.8 102.582C262.253 100.712 273.222 101.952 279.692 106.073L280.061 106.309L299.644 106.303V125.222L299.477 135.234V139.151H220.9V110.765ZM299.476 161.537H220.9V142.151H299.476V161.537ZM357.888 156.021H302.472V154.043H358.709C358.925 154.258 359.047 154.551 359.048 154.856C359.048 155.165 358.925 155.461 358.707 155.679C358.489 155.898 358.193 156.02 357.884 156.021H357.888Z" fill="#316BEB"/>
<path d="M262.959 62.671H260.162V66.154H262.959V62.671Z" fill="#316BEB"/>
<path d="M269.06 62.671H266.264V66.154H269.06V62.671Z" fill="#316BEB"/>
<path d="M275.162 62.671H272.365V66.154H275.162V62.671Z" fill="#316BEB"/>
<path d="M262.959 69.915H260.162V73.398H262.959V69.915Z" fill="#316BEB"/>
<path d="M269.06 69.915H266.264V73.398H269.06V69.915Z" fill="#316BEB"/>
<path d="M275.162 69.915H272.365V73.398H275.162V69.915Z" fill="#316BEB"/>
<path d="M262.959 77.158H260.162V80.641H262.959V77.158Z" fill="#316BEB"/>
<path d="M269.06 77.158H266.264V80.641H269.06V77.158Z" fill="#316BEB"/>
<path d="M275.162 77.158H272.365V80.641H275.162V77.158Z" fill="#316BEB"/>
<path d="M262.959 84.402H260.162V87.885H262.959V84.402Z" fill="#316BEB"/>
<path d="M269.06 84.402H266.264V87.885H269.06V84.402Z" fill="#316BEB"/>
<path d="M275.162 84.402H272.365V87.885H275.162V84.402Z" fill="#316BEB"/>
<path d="M231.036 62.671H228.239V66.154H231.036V62.671Z" fill="#316BEB"/>
<path d="M237.138 62.671H234.341V66.154H237.138V62.671Z" fill="#316BEB"/>
<path d="M243.239 62.671H240.443V66.154H243.239V62.671Z" fill="#316BEB"/>
<path d="M231.036 69.915H228.239V73.398H231.036V69.915Z" fill="#316BEB"/>
<path d="M237.138 69.915H234.341V73.398H237.138V69.915Z" fill="#316BEB"/>
<path d="M243.239 69.915H240.443V73.398H243.239V69.915Z" fill="#316BEB"/>
<path d="M231.036 77.158H228.239V80.641H231.036V77.158Z" fill="#316BEB"/>
<path d="M237.138 77.158H234.341V80.641H237.138V77.158Z" fill="#316BEB"/>
<path d="M243.239 77.158H240.443V80.641H243.239V77.158Z" fill="#316BEB"/>
<path d="M231.036 84.402H228.239V87.885H231.036V84.402Z" fill="#316BEB"/>
<path d="M237.138 84.402H234.341V87.885H237.138V84.402Z" fill="#316BEB"/>
<path d="M243.239 84.402H240.443V87.885H243.239V84.402Z" fill="#316BEB"/>
<path d="M70.7749 138.855H66.7749V143.012H70.7749V138.855Z" fill="#316BEB"/>
<path d="M79.667 138.855H75.667V143.012H79.667V138.855Z" fill="#316BEB"/>
<path d="M146.775 138.855H142.775V143.012H146.775V138.855Z" fill="#316BEB"/>
<path d="M137.883 138.855H133.883V143.012H137.883V138.855Z" fill="#316BEB"/>
<path d="M99.197 130.021H95.197V134.178H99.197V130.021Z" fill="#316BEB"/>
<path d="M89.175 130.021H85.175V134.178H89.175V130.021Z" fill="#316BEB"/>
<path d="M119.242 130.021H115.242V134.178H119.242V130.021Z" fill="#316BEB"/>
<path d="M129.264 130.021H125.264V134.178H129.264V130.021Z" fill="#316BEB"/>
<path d="M109.22 130.021H105.22V134.178H109.22V130.021Z" fill="#316BEB"/>
<path d="M109.22 121.013H105.22V125.171H109.22V121.013Z" fill="#316BEB"/>
<g clip-path="url(#clip1_334_1473)">
<path d="M1729.24 104.381H1726.24V108.772H1729.24V104.381Z" fill="#316BEB"/>
<path d="M1721.21 103.576H1718.21V109.576H1721.21V103.576Z" fill="#316BEB"/>
<path d="M1713.18 103.076H1710.18V110.076H1713.18V103.076Z" fill="#316BEB"/>
<path d="M1705.15 103.076H1702.15V110.076H1705.15V103.076Z" fill="#316BEB"/>
<path d="M1697.12 103.576H1694.12V109.576H1697.12V103.576Z" fill="#316BEB"/>
<path d="M1689.09 104.381H1686.09V108.772H1689.09V104.381Z" fill="#316BEB"/>
<path d="M1920.21 153.223V150.223H1895.63C1889.6 136.676 1874.48 107.511 1856.19 107.511C1847.03 107.511 1837.59 114.868 1828.12 129.356C1818.66 114.868 1809.21 107.511 1800.05 107.511C1781.76 107.511 1766.65 136.676 1760.62 150.223H1727.27L1722.02 116.523C1733.54 115.213 1739.01 112 1739.01 106.681C1739.01 100.841 1732.42 97.5369 1718.48 96.5059L1710.82 47.2999L1709.15 36.2729H1706.19L1704.52 47.2999L1696.86 96.5C1682.91 97.535 1676.33 100.839 1676.33 106.679C1676.33 111.999 1681.8 115.211 1693.32 116.521L1685.84 164.537H1729.49L1727.73 153.223H1758.02V156.636H1754.07V164.536H1769.11V156.636H1765.16V153.223H1815.5C1814.84 154.74 1814.3 156.061 1813.86 157.13H1807.79V164.537H1820.74V157.13H1817.1C1817.57 156.011 1818.13 154.688 1818.78 153.223H1837.46C1838.11 154.688 1838.67 156.011 1839.13 157.13H1835.5V164.537H1848.45V157.13H1842.37C1841.94 156.06 1841.39 154.74 1840.74 153.223H1891.46V156.636H1887.51V164.536H1902.55V156.636H1898.6V153.223H1920.21ZM1709.17 56.2L1715.41 96.3209C1713.46 96.2283 1711.38 96.1736 1709.17 96.1569V56.2ZM1706.17 56.205V96.1569C1703.96 96.1743 1701.88 96.2289 1699.93 96.3209L1706.17 56.205ZM1679.33 106.679C1679.33 101.753 1689.13 99.149 1707.67 99.149C1726.2 99.149 1736.01 101.749 1736.01 106.679C1736.01 111.609 1726.21 114.208 1707.67 114.208C1689.13 114.208 1679.33 111.6 1679.33 106.679ZM1689.35 161.537L1696.31 116.808C1697.05 116.868 1697.82 116.922 1698.61 116.968L1704.52 161.537H1689.35ZM1707.55 161.537L1701.66 117.108C1703.56 117.174 1705.56 117.208 1707.67 117.208C1709.79 117.208 1711.79 117.174 1713.69 117.108L1707.8 161.537H1707.55ZM1710.83 161.537L1716.73 116.968C1717.52 116.922 1718.29 116.868 1719.03 116.808L1725.99 161.537H1710.83ZM1817.74 161.537H1810.79V160.13H1817.74V161.537ZM1845.46 161.537H1838.5V160.13H1845.45L1845.46 161.537ZM1854.48 150.223H1843.48V115.911C1847.25 112.845 1850.94 111.065 1854.48 110.627V150.223ZM1857.48 110.584C1861.29 110.925 1864.99 112.745 1868.48 115.484V150.227H1857.48V110.584ZM1787.56 115.64C1791.05 112.864 1794.75 110.993 1798.56 110.596V150.223H1787.56V115.64ZM1801.56 110.594C1805.1 110.979 1808.79 112.719 1812.56 115.74V150.223H1801.56V110.594ZM1766.11 159.636V161.536H1757.07V159.636H1766.11V159.636ZM1762.16 156.636H1761.02V153.223H1762.16V156.636ZM1763.91 150.223C1767.43 142.5 1775.05 127.478 1784.55 118.285V150.223H1763.91ZM1815.55 150.223V118.411C1819.46 122.341 1822.92 126.693 1825.87 131.388C1826.03 131.639 1826.19 131.888 1826.35 132.146C1822.81 137.971 1819.63 144.008 1816.83 150.223H1815.55ZM1820.14 150.223C1822.53 145.016 1825.2 139.939 1828.12 135.012C1831.05 139.939 1833.71 145.016 1836.11 150.223H1820.14ZM1829.89 132.145C1830.05 131.893 1830.21 131.639 1830.37 131.388C1833.27 126.778 1836.66 122.494 1840.48 118.613V150.223H1839.41C1836.61 144.007 1833.43 137.97 1829.89 132.145V132.145ZM1871.48 150.223V118.084C1881.08 127.257 1888.78 142.442 1892.34 150.223H1871.48V150.223ZM1899.55 159.636V161.536H1890.52V159.636H1899.55ZM1895.6 156.636H1894.47V153.223H1895.6L1895.6 156.636Z" fill="#316BEB"/>
</g>
<line y1="163.5" x2="1920" y2="163.5" stroke="#316BEB" stroke-width="3"/>
</g>
<defs>
<clipPath id="clip0_334_1473">
<rect width="1920" height="165" fill="white"/>
</clipPath>
<clipPath id="clip1_334_1473">
<rect width="244.206" height="164.537" fill="white" transform="translate(1676)"/>
</clipPath>
</defs>
</svg>
