<svg width="768" height="129" viewBox="0 0 768 129" fill="none" xmlns="http://www.w3.org/2000/svg">
<g clip-path="url(#clip0_334_1371)">
<path d="M223.9 100.3H281.263V75.92H223.9V100.3ZM259.943 97.3H254.081V78.92H259.943V97.3ZM262.943 78.916H268.8V97.3H262.936L262.943 78.916ZM251.076 97.3H245.214V78.92H251.076V97.3ZM242.214 97.3H236.352V78.92H242.214V97.3ZM278.258 97.3H271.8V78.92H278.257L278.258 97.3ZM226.9 78.92H233.357V97.3H226.9V78.92Z" fill="#2C66D0"/>
<path d="M359.79 115.155L344.971 107.525C343.866 106.958 342.642 106.661 341.4 106.66H302.472V99.26L302.639 89.26V67.3H280.92C280.789 67.22 280.647 67.152 280.514 67.075V19.74H273.4L269.159 16.727V15.275H274.835V12.048H260.485V15.275H266.162V16.675H254.811V63C252.742 63.141 250.66 63.351 248.59 63.628V19.74H241.48L237.238 16.726V15.275H242.915V12.048H228.562V15.275H234.238V16.675H222.887V70.481C221.437 71.104 220.022 71.805 218.648 72.581L217.896 73.014V113.563H191.833C191.673 112.423 191.209 111.348 190.491 110.448C189.772 109.549 188.825 108.86 187.749 108.452C186.656 107.981 184.043 107.271 180.087 106.194C169.165 103.222 148.835 97.694 132.759 89.503C111.153 78.503 109.859 78.479 107.318 78.515H106.99C104.424 78.464 103.152 78.503 81.549 89.503C65.473 97.689 45.143 103.222 34.221 106.194C30.265 107.271 27.651 107.981 26.559 108.452C25.4827 108.86 24.5358 109.549 23.8174 110.448C23.0989 111.348 22.6353 112.423 22.475 113.563H0V116.563H60.073C60.382 116.563 63.115 116.64 64.214 118.172C64.833 119.035 64.863 120.34 64.305 122.049C63.7749 123.527 63.0756 124.939 62.221 126.256L60.821 128.538H70.936L71.33 127.644C73.2448 123.598 75.7576 119.863 78.784 116.565H135.512C138.394 120.02 140.911 123.763 143.022 127.736L143.444 128.536H153.486L152.086 126.253C151.23 124.937 150.53 123.526 150 122.048C149.441 120.339 149.472 119.034 150.091 118.17C151.191 116.639 153.922 116.564 154.214 116.562H217.9V128.536H302.476V123.021H310.012C309.878 123.427 309.807 123.851 309.801 124.278C309.789 124.898 309.913 125.512 310.164 126.079C310.414 126.646 310.786 127.151 311.252 127.56C311.718 127.968 312.268 128.27 312.863 128.444C313.457 128.618 314.083 128.66 314.696 128.568C315.309 128.475 315.894 128.249 316.41 127.907C316.927 127.565 317.363 127.114 317.687 126.585C318.011 126.057 318.216 125.465 318.288 124.849C318.359 124.233 318.296 123.609 318.101 123.021H331.523C331.389 123.427 331.318 123.851 331.312 124.278C331.303 124.843 331.407 125.403 331.617 125.927C331.827 126.451 332.139 126.929 332.536 127.331C332.932 127.733 333.404 128.053 333.925 128.271C334.446 128.489 335.005 128.601 335.569 128.601C336.134 128.601 336.693 128.489 337.214 128.271C337.735 128.053 338.207 127.733 338.603 127.331C339 126.929 339.312 126.451 339.522 125.927C339.732 125.403 339.836 124.843 339.827 124.278C339.821 123.851 339.75 123.427 339.616 123.021H357.884C358.818 123.021 359.724 122.707 360.458 122.13C361.192 121.552 361.711 120.745 361.931 119.838C362.15 118.93 362.059 117.975 361.671 117.126C361.283 116.277 360.62 115.582 359.79 115.155V115.155ZM81.873 113.563C88.8305 107.387 97.8524 104.048 107.154 104.205C116.456 104.048 125.478 107.387 132.436 113.563H81.873ZM154.201 113.563C153.139 113.574 149.526 113.815 147.656 116.424C146.449 118.107 146.28 120.314 147.156 122.981C147.449 123.86 147.81 124.715 148.235 125.538H145.248C144.085 123.428 140.773 117.686 137.258 114.025C133.363 109.973 128.691 106.749 123.52 104.546C118.35 102.344 112.788 101.207 107.167 101.206C101.547 101.205 95.9847 102.338 90.8131 104.539C85.6415 106.739 80.9674 109.961 77.071 114.011C73.8167 117.423 71.0991 121.31 69.011 125.538H66.081C66.5063 124.715 66.8671 123.86 67.16 122.981C68.032 120.314 67.86 118.107 66.655 116.424C64.785 113.815 61.173 113.574 60.094 113.563H25.521C25.6784 113.022 25.9621 112.527 26.3486 112.118C26.7351 111.709 27.2134 111.397 27.744 111.209C28.644 110.822 31.452 110.058 35.008 109.09C46.034 106.09 66.559 100.504 82.908 92.178C103.394 81.746 105.038 81.515 106.853 81.515H107.325C109.17 81.515 110.436 81.504 131.395 92.177C147.747 100.503 168.271 106.088 179.295 109.089C182.85 110.057 185.659 110.821 186.558 111.208C187.089 111.396 187.567 111.708 187.954 112.117C188.341 112.526 188.625 113.022 188.783 113.562L154.201 113.563ZM314.055 125.538C313.806 125.538 313.563 125.465 313.356 125.326C313.149 125.188 312.987 124.992 312.892 124.762C312.797 124.532 312.772 124.279 312.82 124.035C312.868 123.791 312.988 123.567 313.164 123.391C313.34 123.215 313.564 123.095 313.808 123.046C314.052 122.998 314.305 123.022 314.535 123.118C314.765 123.213 314.962 123.374 315.1 123.581C315.238 123.788 315.312 124.031 315.312 124.28C315.311 124.613 315.179 124.933 314.943 125.168C314.708 125.404 314.388 125.536 314.055 125.537V125.538ZM335.569 125.538C335.32 125.538 335.077 125.464 334.87 125.326C334.663 125.188 334.502 124.991 334.407 124.761C334.312 124.532 334.287 124.279 334.335 124.035C334.384 123.791 334.504 123.566 334.679 123.39C334.855 123.214 335.08 123.095 335.324 123.046C335.568 122.998 335.821 123.023 336.05 123.118C336.28 123.213 336.477 123.374 336.615 123.581C336.753 123.788 336.827 124.031 336.827 124.28C336.826 124.613 336.694 124.933 336.458 125.169C336.222 125.404 335.902 125.537 335.569 125.537V125.538ZM343.599 110.194L353.019 115.045H340.075V109.66H341.4C342.165 109.661 342.919 109.844 343.6 110.193L343.599 110.194ZM312.075 115.045V109.66H323.075V115.044L312.075 115.045ZM326.075 109.661H337.075V115.045H326.075V109.661ZM309.075 109.661V115.045H302.475V109.66L309.075 109.661ZM257.811 19.671H268.127L272.446 22.74H277.514V65.613C272.014 63.366 265.074 62.607 257.814 62.845L257.811 19.671ZM225.887 19.671H236.2L240.52 22.74H245.587V64.08C238.867 65.1576 232.269 66.8905 225.887 69.254V19.671ZM220.9 74.765C226.414 71.807 236.893 68.237 248.8 66.582C262.253 64.712 273.222 65.952 279.692 70.073L280.061 70.309L299.644 70.303V89.222L299.477 99.234V103.151H220.9V74.765ZM299.476 125.537H220.9V106.151H299.476V125.537ZM357.888 120.021H302.472V118.043H358.709C358.925 118.258 359.047 118.551 359.048 118.856C359.048 119.165 358.925 119.461 358.707 119.679C358.489 119.898 358.193 120.02 357.884 120.021H357.888Z" fill="#2C66D0"/>
<path d="M262.959 26.671H260.162V30.154H262.959V26.671Z" fill="#2C66D0"/>
<path d="M269.06 26.671H266.264V30.154H269.06V26.671Z" fill="#2C66D0"/>
<path d="M275.162 26.671H272.365V30.154H275.162V26.671Z" fill="#2C66D0"/>
<path d="M262.959 33.915H260.162V37.398H262.959V33.915Z" fill="#2C66D0"/>
<path d="M269.06 33.915H266.264V37.398H269.06V33.915Z" fill="#2C66D0"/>
<path d="M275.162 33.915H272.365V37.398H275.162V33.915Z" fill="#2C66D0"/>
<path d="M262.959 41.158H260.162V44.641H262.959V41.158Z" fill="#2C66D0"/>
<path d="M269.06 41.158H266.264V44.641H269.06V41.158Z" fill="#2C66D0"/>
<path d="M275.162 41.158H272.365V44.641H275.162V41.158Z" fill="#2C66D0"/>
<path d="M262.959 48.402H260.162V51.885H262.959V48.402Z" fill="#2C66D0"/>
<path d="M269.06 48.402H266.264V51.885H269.06V48.402Z" fill="#2C66D0"/>
<path d="M275.162 48.402H272.365V51.885H275.162V48.402Z" fill="#2C66D0"/>
<path d="M231.036 26.671H228.239V30.154H231.036V26.671Z" fill="#2C66D0"/>
<path d="M237.138 26.671H234.341V30.154H237.138V26.671Z" fill="#2C66D0"/>
<path d="M243.239 26.671H240.443V30.154H243.239V26.671Z" fill="#2C66D0"/>
<path d="M231.036 33.915H228.239V37.398H231.036V33.915Z" fill="#2C66D0"/>
<path d="M237.138 33.915H234.341V37.398H237.138V33.915Z" fill="#2C66D0"/>
<path d="M243.239 33.915H240.443V37.398H243.239V33.915Z" fill="#2C66D0"/>
<path d="M231.036 41.158H228.239V44.641H231.036V41.158Z" fill="#2C66D0"/>
<path d="M237.138 41.158H234.341V44.641H237.138V41.158Z" fill="#2C66D0"/>
<path d="M243.239 41.158H240.443V44.641H243.239V41.158Z" fill="#2C66D0"/>
<path d="M231.036 48.402H228.239V51.885H231.036V48.402Z" fill="#2C66D0"/>
<path d="M237.138 48.402H234.341V51.885H237.138V48.402Z" fill="#2C66D0"/>
<path d="M243.239 48.402H240.443V51.885H243.239V48.402Z" fill="#2C66D0"/>
<path d="M70.7749 102.855H66.7749V107.012H70.7749V102.855Z" fill="#2C66D0"/>
<path d="M79.667 102.855H75.667V107.012H79.667V102.855Z" fill="#2C66D0"/>
<path d="M146.775 102.855H142.775V107.012H146.775V102.855Z" fill="#2C66D0"/>
<path d="M137.883 102.855H133.883V107.012H137.883V102.855Z" fill="#2C66D0"/>
<path d="M99.197 94.021H95.197V98.178H99.197V94.021Z" fill="#2C66D0"/>
<path d="M89.175 94.021H85.175V98.178H89.175V94.021Z" fill="#2C66D0"/>
<path d="M119.242 94.021H115.242V98.178H119.242V94.021Z" fill="#2C66D0"/>
<path d="M129.264 94.021H125.264V98.178H129.264V94.021Z" fill="#2C66D0"/>
<path d="M109.22 94.021H105.22V98.178H109.22V94.021Z" fill="#2C66D0"/>
<path d="M109.22 85.0129H105.22V89.1709H109.22V85.0129Z" fill="#2C66D0"/>
<g clip-path="url(#clip1_334_1371)">
<path d="M577.242 68.381H574.242V72.772H577.242V68.381Z" fill="#2C66D0"/>
<path d="M569.213 67.576H566.213V73.576H569.213V67.576Z" fill="#2C66D0"/>
<path d="M561.183 67.076H558.183V74.076H561.183V67.076Z" fill="#2C66D0"/>
<path d="M553.153 67.076H550.153V74.076H553.153V67.076Z" fill="#2C66D0"/>
<path d="M545.124 67.576H542.124V73.576H545.124V67.576Z" fill="#2C66D0"/>
<path d="M537.095 68.381H534.095V72.772H537.095V68.381Z" fill="#2C66D0"/>
<path d="M768.206 117.223V114.223H743.628C737.597 100.676 722.482 71.511 704.192 71.511C695.03 71.511 685.586 78.868 676.122 93.356C666.657 78.868 657.213 71.511 648.051 71.511C629.761 71.511 614.651 100.676 608.615 114.223H575.267L570.021 80.5229C581.537 79.2129 587.005 76 587.005 70.681C587.005 64.841 580.423 61.5369 566.475 60.5059L558.818 11.2999L557.151 0.272949H554.185L552.519 11.2999L544.861 60.5C530.913 61.535 524.332 64.839 524.332 70.679C524.332 75.999 529.799 79.211 541.315 80.521L533.843 128.537H577.494L575.733 117.223H606.023V120.636H602.073V128.536H617.108V120.636H613.158V117.223H663.5C662.844 118.74 662.3 120.061 661.863 121.13H655.786V128.537H668.736V121.13H665.104C665.566 120.011 666.128 118.688 666.775 117.223H685.462C686.109 118.688 686.672 120.011 687.134 121.13H683.5V128.537H696.45V121.13H690.374C689.941 120.06 689.393 118.74 688.736 117.223H739.463V120.636H735.514V128.536H750.548V120.636H746.6V117.223H768.206ZM557.168 20.2L563.41 60.3209C561.456 60.2283 559.375 60.1736 557.168 60.1569V20.2ZM554.168 20.205V60.1569C551.961 60.1743 549.88 60.2289 547.926 60.3209L554.168 20.205ZM527.332 70.679C527.332 65.753 537.132 63.149 555.668 63.149C574.204 63.149 584.005 65.749 584.005 70.679C584.005 75.609 574.205 78.2079 555.668 78.2079C537.131 78.2079 527.332 75.6 527.332 70.679ZM537.347 125.537L544.307 80.808C545.054 80.868 545.817 80.922 546.607 80.968L552.515 125.537H537.347ZM555.547 125.537L549.658 81.108C551.558 81.174 553.558 81.2079 555.673 81.2079C557.788 81.2079 559.793 81.174 561.689 81.108L555.799 125.537H555.547ZM558.825 125.537L564.734 80.968C565.524 80.922 566.288 80.868 567.034 80.808L573.994 125.537H558.825ZM665.744 125.537H658.794V124.13H665.744V125.537ZM693.459 125.537H686.5V124.13H693.45L693.459 125.537ZM702.484 114.223H691.484V79.9109C695.251 76.8449 698.943 75.065 702.484 74.627V114.223ZM705.484 74.584C709.293 74.925 712.991 76.7449 716.484 79.4839V114.227H705.484V74.584ZM635.556 79.64C639.046 76.864 642.746 74.9929 646.556 74.5959V114.223H635.556V79.64ZM649.556 74.5939C653.095 74.9789 656.788 76.7189 660.556 79.7399V114.223H649.556V74.5939ZM614.108 123.636V125.536H605.073V123.636H614.108V123.636ZM610.158 120.636H609.023V117.223H610.158V120.636ZM611.906 114.223C615.434 106.5 623.047 91.478 632.551 82.285V114.223H611.906ZM663.551 114.223V82.4109C667.461 86.3406 670.923 90.6931 673.871 95.388C674.034 95.639 674.19 95.888 674.351 96.146C670.811 101.971 667.633 108.008 664.834 114.223H663.551ZM668.135 114.223C670.529 109.016 673.195 103.939 676.122 99.0119C679.049 103.939 681.714 109.016 684.108 114.223H668.135ZM677.893 96.145C678.054 95.893 678.209 95.639 678.372 95.388C681.27 90.7775 684.659 86.4943 688.479 82.6129V114.223H687.409C684.611 108.007 681.433 101.97 677.893 96.145V96.145ZM719.479 114.223V82.084C729.079 91.257 736.779 106.442 740.337 114.223H719.479V114.223ZM747.552 123.636V125.536H738.518V123.636H747.552ZM743.602 120.636H742.467V117.223H743.6L743.602 120.636Z" fill="#2C66D0"/>
</g>
<line y1="127.5" x2="768" y2="127.5" stroke="#2C66DB" stroke-width="3"/>
</g>
<defs>
<clipPath id="clip0_334_1371">
<rect width="768" height="129" fill="white"/>
</clipPath>
<clipPath id="clip1_334_1371">
<rect width="244.206" height="164.537" fill="white" transform="translate(524 -36)"/>
</clipPath>
</defs>
</svg>
