<svg width="360" height="78" viewBox="0 0 360 78" fill="none" xmlns="http://www.w3.org/2000/svg">
<g clip-path="url(#clip0_334_1422)">
<path d="M104.953 63.8907H131.842V52.4625H104.953V63.8907ZM121.848 62.4844H119.1V53.8688H121.848V62.4844ZM123.255 53.8669H126V62.4844H123.251L123.255 53.8669ZM117.692 62.4844H114.944V53.8688H117.692V62.4844ZM113.538 62.4844H110.79V53.8688H113.538V62.4844ZM130.433 62.4844H127.406V53.8688H130.433L130.433 62.4844ZM106.359 53.8688H109.386V62.4844H106.359V53.8688Z" fill="#316BEB"/>
<path d="M168.652 70.8539L161.705 67.2773C161.187 67.0115 160.613 66.8725 160.031 66.8718H141.784V63.4031L141.862 58.7156V48.4218H131.681C131.62 48.3843 131.553 48.3525 131.491 48.3164V26.1281H128.156L126.168 24.7157V24.0351H128.829V22.5225H122.102V24.0351H124.763V24.6914H119.443V46.4062C118.473 46.4723 117.497 46.5707 116.527 46.7006V26.1281H113.194L111.205 24.7153V24.0351H113.866V22.5225H107.138V24.0351H109.799V24.6914H104.478V49.9129C103.799 50.205 103.135 50.5336 102.491 50.8973L102.139 51.1003V70.1076H89.9217C89.8466 69.5734 89.6293 69.0691 89.2925 68.6477C88.9557 68.2262 88.5118 67.903 88.0073 67.7118C87.495 67.4911 86.2702 67.1582 84.4158 66.6534C79.2961 65.2603 69.7664 62.669 62.2308 58.8295C52.103 53.6732 51.4964 53.662 50.3053 53.6789H50.1516C48.9487 53.655 48.3525 53.6732 38.2261 58.8295C30.6905 62.6667 21.1608 65.2603 16.0411 66.6534C14.1867 67.1582 12.9614 67.4911 12.4495 67.7118C11.945 67.903 11.5012 68.2262 11.1644 68.6477C10.8276 69.0691 10.6103 69.5734 10.5352 70.1076H0V71.5139H28.1592C28.3041 71.5139 29.5852 71.55 30.1003 72.2681C30.3905 72.6726 30.4045 73.2843 30.143 74.0854C29.8945 74.7782 29.5667 75.44 29.1661 76.0575L28.5098 77.1271H33.2512L33.4359 76.7081C34.3335 74.8115 35.5114 73.0608 36.93 71.5148H63.5212C64.8722 73.1342 66.0519 74.889 67.0416 76.7512L67.2394 77.1262H71.9466L71.2903 76.0561C70.8891 75.4391 70.5609 74.7777 70.3125 74.085C70.0505 73.2839 70.065 72.6721 70.3552 72.2671C70.8708 71.5495 72.1509 71.5143 72.2878 71.5134H102.141V77.1262H141.786V74.5411H145.318C145.255 74.7313 145.222 74.93 145.219 75.1303C145.214 75.4208 145.272 75.7089 145.389 75.9746C145.507 76.2404 145.681 76.4772 145.899 76.6687C146.118 76.8602 146.375 77.0017 146.654 77.0833C146.933 77.1648 147.226 77.1846 147.514 77.1411C147.801 77.0976 148.075 76.9919 148.317 76.8314C148.56 76.6709 148.764 76.4595 148.916 76.2119C149.068 75.9643 149.164 75.6865 149.197 75.3979C149.231 75.1093 149.201 74.8169 149.11 74.5411H155.401C155.339 74.7313 155.305 74.93 155.302 75.1303C155.298 75.3949 155.347 75.6577 155.446 75.9034C155.544 76.1491 155.69 76.3728 155.876 76.5613C156.062 76.7499 156.283 76.8997 156.527 77.0019C156.771 77.1042 157.034 77.1568 157.298 77.1568C157.563 77.1568 157.825 77.1042 158.069 77.0019C158.313 76.8997 158.535 76.7499 158.72 76.5613C158.906 76.3728 159.052 76.1491 159.151 75.9034C159.249 75.6577 159.298 75.3949 159.294 75.1303C159.291 74.93 159.258 74.7313 159.195 74.5411H167.758C168.196 74.541 168.621 74.3939 168.965 74.1232C169.309 73.8526 169.552 73.4742 169.655 73.0488C169.758 72.6235 169.715 72.1758 169.533 71.7777C169.351 71.3796 169.041 71.0543 168.652 70.8539V70.8539ZM38.378 70.1076C41.6393 67.2128 45.8683 65.6474 50.2284 65.7211C54.5887 65.6474 58.8179 67.2128 62.0794 70.1076H38.378ZM72.2817 70.1076C71.7839 70.1128 70.0903 70.2257 69.2137 71.4487C68.648 72.2376 68.5687 73.2722 68.9794 74.5223C69.1166 74.9343 69.2857 75.3351 69.4852 75.7209H68.085C67.5398 74.7318 65.9873 72.0403 64.3397 70.3242C62.5141 68.4248 60.3238 66.9135 57.9001 65.881C55.4764 64.8485 52.8692 64.316 50.2348 64.3154C47.6003 64.3147 44.9928 64.8461 42.5686 65.8774C40.1445 66.9088 37.9535 68.4191 36.127 70.3176C34.6016 71.9172 33.3277 73.739 32.3489 75.7209H30.9755C31.1748 75.3351 31.3439 74.9343 31.4812 74.5223C31.89 73.2722 31.8094 72.2376 31.2445 71.4487C30.368 70.2257 28.6748 70.1128 28.1691 70.1076H11.963C12.0368 69.8543 12.1697 69.6221 12.3509 69.4302C12.5321 69.2384 12.7563 69.0923 13.005 69.0042C13.4269 68.8228 14.7431 68.4646 16.41 68.0109C21.5784 66.6046 31.1995 63.9862 38.8631 60.0834C48.4659 55.1934 49.2366 55.0851 50.0873 55.0851H50.3086C51.1734 55.0851 51.7669 55.08 61.5914 60.0829C69.2564 63.9857 78.877 66.6037 84.0445 68.0104C85.7109 68.4642 87.0277 68.8223 87.4491 69.0037C87.6978 69.092 87.9221 69.238 88.1034 69.4299C88.2847 69.6217 88.4179 69.8538 88.492 70.1071L72.2817 70.1076ZM147.213 75.7209C147.097 75.721 146.983 75.6865 146.886 75.6217C146.789 75.557 146.713 75.4649 146.668 75.3572C146.623 75.2495 146.612 75.1309 146.634 75.0165C146.657 74.902 146.713 74.7969 146.796 74.7144C146.878 74.6319 146.983 74.5757 147.098 74.5529C147.212 74.5301 147.331 74.5417 147.438 74.5864C147.546 74.631 147.638 74.7066 147.703 74.8036C147.768 74.9005 147.802 75.0146 147.802 75.1312C147.802 75.2874 147.74 75.4371 147.63 75.5476C147.519 75.658 147.369 75.7202 147.213 75.7204V75.7209ZM157.298 75.7209C157.181 75.7209 157.067 75.6863 156.97 75.6215C156.873 75.5567 156.798 75.4646 156.753 75.3569C156.709 75.2491 156.697 75.1306 156.72 75.0162C156.742 74.9018 156.799 74.7967 156.881 74.7142C156.963 74.6318 157.069 74.5756 157.183 74.5529C157.297 74.5301 157.416 74.5418 157.524 74.5864C157.631 74.631 157.723 74.7066 157.788 74.8036C157.853 74.9006 157.888 75.0146 157.888 75.1312C157.887 75.2875 157.825 75.4373 157.715 75.5477C157.604 75.6582 157.454 75.7203 157.298 75.7204V75.7209ZM161.062 68.5284L165.478 70.8023H159.41V68.2781H160.031C160.39 68.2787 160.743 68.3643 161.062 68.5279L161.062 68.5284ZM146.285 70.8023V68.2781H151.441V70.8018L146.285 70.8023ZM152.848 68.2786H158.004V70.8023H152.848V68.2786ZM144.879 68.2786V70.8023H141.785V68.2781L144.879 68.2786ZM120.849 26.0957H125.685L127.709 27.5343H130.085V47.6311C127.507 46.5778 124.253 46.222 120.85 46.3336L120.849 26.0957ZM105.885 26.0957H110.719L112.744 27.5343H115.119V46.9125C111.969 47.4176 108.876 48.2299 105.885 49.3378V26.0957ZM103.547 51.9211C106.132 50.5345 111.044 48.8611 116.625 48.0853C122.931 47.2087 128.073 47.79 131.106 49.7217L131.279 49.8323L140.458 49.8295V58.6978L140.38 63.3909V65.227H103.547V51.9211ZM140.379 75.7204H103.547V66.6332H140.379V75.7204ZM167.76 73.1348H141.784V72.2076H168.145C168.246 72.3086 168.303 72.4456 168.304 72.5887C168.304 72.7334 168.246 72.8722 168.144 72.9746C168.042 73.0769 167.903 73.1346 167.758 73.1348H167.76Z" fill="#316BEB"/>
<path d="M123.262 29.3771H121.951V31.0097H123.262V29.3771Z" fill="#316BEB"/>
<path d="M126.122 29.3771H124.812V31.0097H126.122V29.3771Z" fill="#316BEB"/>
<path d="M128.982 29.3771H127.671V31.0097H128.982V29.3771Z" fill="#316BEB"/>
<path d="M123.262 32.7727H121.951V34.4054H123.262V32.7727Z" fill="#316BEB"/>
<path d="M126.122 32.7727H124.812V34.4054H126.122V32.7727Z" fill="#316BEB"/>
<path d="M128.982 32.7727H127.671V34.4054H128.982V32.7727Z" fill="#316BEB"/>
<path d="M123.262 36.1678H121.951V37.8005H123.262V36.1678Z" fill="#316BEB"/>
<path d="M126.122 36.1678H124.812V37.8005H126.122V36.1678Z" fill="#316BEB"/>
<path d="M128.982 36.1678H127.671V37.8005H128.982V36.1678Z" fill="#316BEB"/>
<path d="M123.262 39.5635H121.951V41.1961H123.262V39.5635Z" fill="#316BEB"/>
<path d="M126.122 39.5635H124.812V41.1961H126.122V39.5635Z" fill="#316BEB"/>
<path d="M128.982 39.5635H127.671V41.1961H128.982V39.5635Z" fill="#316BEB"/>
<path d="M108.298 29.3771H106.987V31.0097H108.298V29.3771Z" fill="#316BEB"/>
<path d="M111.158 29.3771H109.847V31.0097H111.158V29.3771Z" fill="#316BEB"/>
<path d="M114.018 29.3771H112.708V31.0097H114.018V29.3771Z" fill="#316BEB"/>
<path d="M108.298 32.7727H106.987V34.4054H108.298V32.7727Z" fill="#316BEB"/>
<path d="M111.158 32.7727H109.847V34.4054H111.158V32.7727Z" fill="#316BEB"/>
<path d="M114.018 32.7727H112.708V34.4054H114.018V32.7727Z" fill="#316BEB"/>
<path d="M108.298 36.1678H106.987V37.8005H108.298V36.1678Z" fill="#316BEB"/>
<path d="M111.158 36.1678H109.847V37.8005H111.158V36.1678Z" fill="#316BEB"/>
<path d="M114.018 36.1678H112.708V37.8005H114.018V36.1678Z" fill="#316BEB"/>
<path d="M108.298 39.5635H106.987V41.1961H108.298V39.5635Z" fill="#316BEB"/>
<path d="M111.158 39.5635H109.847V41.1961H111.158V39.5635Z" fill="#316BEB"/>
<path d="M114.018 39.5635H112.708V41.1961H114.018V39.5635Z" fill="#316BEB"/>
<path d="M33.1758 65.0883H31.3008V67.0368H33.1758V65.0883Z" fill="#316BEB"/>
<path d="M37.3438 65.0883H35.4688V67.0368H37.3438V65.0883Z" fill="#316BEB"/>
<path d="M68.801 65.0883H66.926V67.0368H68.801V65.0883Z" fill="#316BEB"/>
<path d="M64.6328 65.0883H62.7578V67.0368H64.6328V65.0883Z" fill="#316BEB"/>
<path d="M46.4985 60.9474H44.6235V62.896H46.4985V60.9474Z" fill="#316BEB"/>
<path d="M41.8008 60.9474H39.9258V62.896H41.8008V60.9474Z" fill="#316BEB"/>
<path d="M55.8948 60.9474H54.0198V62.896H55.8948V60.9474Z" fill="#316BEB"/>
<path d="M60.5928 60.9474H58.7178V62.896H60.5928V60.9474Z" fill="#316BEB"/>
<path d="M51.197 60.9474H49.322V62.896H51.197V60.9474Z" fill="#316BEB"/>
<path d="M51.197 56.7249H49.322V58.6739H51.197V56.7249Z" fill="#316BEB"/>
<g clip-path="url(#clip1_334_1422)">
<path d="M270.582 48.9286H269.176V50.9869H270.582V48.9286Z" fill="#316BEB"/>
<path d="M266.818 48.5513H265.412V51.3638H266.818V48.5513Z" fill="#316BEB"/>
<path d="M263.054 48.3169H261.648V51.5981H263.054V48.3169Z" fill="#316BEB"/>
<path d="M259.29 48.3169H257.884V51.5981H259.29V48.3169Z" fill="#316BEB"/>
<path d="M255.526 48.5513H254.12V51.3638H255.526V48.5513Z" fill="#316BEB"/>
<path d="M251.763 48.9286H250.357V50.9869H251.763V48.9286Z" fill="#316BEB"/>
<path d="M360.096 71.8232V70.417H348.576C345.748 64.0668 338.663 50.3957 330.09 50.3957C325.795 50.3957 321.368 53.8443 316.932 60.6356C312.495 53.8443 308.068 50.3957 303.774 50.3957C295.2 50.3957 288.118 64.0668 285.288 70.417H269.656L267.197 54.6201C272.595 54.0061 275.158 52.5 275.158 50.0067C275.158 47.2692 272.073 45.7204 265.535 45.2371L261.946 22.1718L261.164 17.0029H259.774L258.993 22.1718L255.403 45.2343C248.865 45.7195 245.781 47.2682 245.781 50.0057C245.781 52.4995 248.343 54.0051 253.741 54.6192L250.239 77.1267H270.7L269.875 71.8232H284.073V73.4231H282.222V77.1262H289.269V73.4231H287.418V71.8232H311.016C310.708 72.5343 310.453 73.1536 310.248 73.6547H307.4V77.1267H313.47V73.6547H311.767C311.984 73.1301 312.247 72.51 312.551 71.8232H321.31C321.613 72.51 321.877 73.1301 322.094 73.6547H320.391V77.1267H326.461V73.6547H323.613C323.41 73.1531 323.153 72.5343 322.845 71.8232H346.623V73.4231H344.772V77.1262H351.819V73.4231H349.969V71.8232H360.096ZM261.172 26.3437L264.098 45.1504C263.182 45.107 262.207 45.0814 261.172 45.0736V26.3437ZM259.766 26.3461V45.0736C258.731 45.0817 257.756 45.1073 256.84 45.1504L259.766 26.3461ZM247.187 50.0057C247.187 47.6967 251.781 46.4761 260.469 46.4761C269.158 46.4761 273.752 47.6948 273.752 50.0057C273.752 52.3167 269.158 53.535 260.469 53.535C251.78 53.535 247.187 52.3125 247.187 50.0057ZM251.881 75.7204L255.144 54.7537C255.494 54.7818 255.852 54.8072 256.222 54.8287L258.991 75.7204H251.881ZM260.413 75.7204L257.652 54.8943C258.543 54.9253 259.48 54.9412 260.472 54.9412C261.463 54.9412 262.403 54.9253 263.292 54.8943L260.531 75.7204H260.413ZM261.949 75.7204L264.719 54.8287C265.089 54.8072 265.447 54.7818 265.797 54.7537L269.06 75.7204H261.949ZM312.067 75.7204H308.81V75.0609H312.067V75.7204ZM325.059 75.7204H321.797V75.0609H325.055L325.059 75.7204ZM329.289 70.417H324.133V54.3332C325.899 52.8961 327.629 52.0617 329.289 51.8564V70.417ZM330.696 51.8362C332.481 51.9961 334.214 52.8492 335.852 54.1331V70.4189H330.696V51.8362ZM297.917 54.2062C299.553 52.905 301.287 52.0279 303.073 51.8418V70.417H297.917V54.2062ZM304.479 51.8409C306.138 52.0214 307.869 52.837 309.636 54.2531V70.417H304.479V51.8409ZM287.863 74.8293V75.72H283.628V74.8293H287.863V74.8293ZM286.011 73.4231H285.479V71.8232H286.011V73.4231ZM286.831 70.417C288.485 66.7968 292.053 59.7553 296.508 55.4461V70.417H286.831ZM311.039 70.417V55.5051C312.872 57.3472 314.495 59.3874 315.877 61.5881C315.953 61.7057 316.026 61.8225 316.102 61.9434C314.443 64.6738 312.953 67.5037 311.641 70.417H311.039ZM313.188 70.417C314.311 67.9764 315.56 65.5964 316.932 63.2868C318.304 65.5963 319.553 67.9763 320.676 70.417H313.188ZM317.762 61.9429C317.838 61.8248 317.91 61.7057 317.987 61.5881C319.345 59.427 320.934 57.4192 322.724 55.5998V70.417H322.223C320.911 67.5035 319.422 64.6734 317.762 61.9429V61.9429ZM337.256 70.417V55.3518C341.756 59.6517 345.365 66.7697 347.033 70.417H337.256V70.417ZM350.415 74.8293V75.72H346.18V74.8293H350.415ZM348.563 73.4231H348.031V71.8232H348.562L348.563 73.4231Z" fill="#316BEB"/>
</g>
<line y1="76.5" x2="360" y2="76.5" stroke="#316BEB"/>
</g>
<defs>
<clipPath id="clip0_334_1422">
<rect width="360" height="77.3438" fill="white"/>
</clipPath>
<clipPath id="clip1_334_1422">
<rect width="114.472" height="77.1267" fill="white" transform="translate(245.625)"/>
</clipPath>
</defs>
</svg>
