<svg width="127" height="127" viewBox="0 0 127 127" fill="none" xmlns="http://www.w3.org/2000/svg">
<circle cx="63.5" cy="63.5" r="63.5" fill="#B20000"/>
<path d="M24.8683 69.335C25.8279 69.335 26.7098 69.1022 27.5142 68.6365C28.3326 68.1567 28.9817 67.5076 29.4615 66.6892C29.9413 65.8707 30.1812 64.9817 30.1812 64.0222C30.1812 63.0626 29.9413 62.1736 29.4615 61.3552C28.9817 60.5367 28.3326 59.8947 27.5142 59.429C26.7098 58.9492 25.8279 58.7093 24.8683 58.7093H22.5612V69.335H24.8683ZM20 56.1482H24.9107C26.3218 56.1482 27.6271 56.5009 28.8265 57.2065C30.0401 57.9121 30.9996 58.8716 31.7052 60.0852C32.4107 61.2846 32.7635 62.5969 32.7635 64.0222C32.7635 65.4474 32.4107 66.7668 31.7052 67.9803C30.9996 69.1798 30.0401 70.1323 28.8265 70.8378C27.6271 71.5434 26.3218 71.8962 24.9107 71.8962H20V56.1482Z" fill="black"/>
<path d="M41.3835 64.0857C41.8632 64.0857 42.3007 63.9657 42.6958 63.7258C43.105 63.4718 43.4296 63.1402 43.6695 62.731C43.9093 62.3218 44.0293 61.8773 44.0293 61.3975C44.0293 60.6637 43.7682 60.0428 43.2461 59.5348C42.7381 59.0127 42.1172 58.7517 41.3835 58.7517H37.256V64.0857H41.3835ZM34.7795 56.1482H41.6586C42.5476 56.1482 43.3661 56.3739 44.114 56.8255C44.8618 57.2629 45.4545 57.8768 45.892 58.667C46.3294 59.4572 46.5481 60.3392 46.5481 61.3128C46.4917 62.5264 46.153 63.5424 45.5321 64.3608C44.9253 65.1793 44.1281 65.8072 43.1403 66.2447L47.289 71.8962H44.1563L40.3251 66.6257H37.256V71.8962H34.7795V56.1482Z" fill="black"/>
<path d="M65.0332 71.8962H62.3451L60.6306 67.7898H53.5186L51.8252 71.8962H49.1159L55.6776 56.1482H58.4716L65.0332 71.8962ZM59.4664 65.0382L57.0957 59.2385L54.6827 65.0382H59.4664Z" fill="black"/>
<path d="M80.7177 63.2178C80.746 63.4154 80.7601 63.6271 80.7601 63.8528C80.7601 64.2479 80.7389 64.7066 80.6966 65.2287C80.4708 67.4018 79.6947 69.081 78.3682 70.2663C77.0418 71.4376 75.285 72.0373 73.0977 72.0655C71.4891 72.0655 70.085 71.7127 68.8856 71.0072C67.7002 70.3016 66.7901 69.3421 66.1551 68.1285C65.5342 66.9008 65.2237 65.5321 65.2237 64.0222C65.2237 62.5264 65.5342 61.1717 66.1551 59.9582C66.7901 58.7305 67.7002 57.7639 68.8856 57.0583C70.085 56.3528 71.4891 56 73.0977 56C74.7629 56 76.1669 56.3669 77.3099 57.1007C78.4529 57.8344 79.2855 58.7305 79.8076 59.7888L77.5639 61.0377C77.197 60.3462 76.6326 59.7606 75.8706 59.2808C75.1086 58.8011 74.1843 58.5612 73.0977 58.5612C71.9971 58.5612 71.0375 58.8011 70.2191 59.2808C69.4147 59.7606 68.8009 60.4168 68.3776 61.2493C67.9542 62.0678 67.7426 62.9921 67.7426 64.0222C67.7426 65.0664 67.9542 66.0048 68.3776 66.8373C68.8009 67.6558 69.4147 68.3049 70.2191 68.7847C71.0375 69.2644 71.9971 69.5043 73.0977 69.5043C75.8776 69.4197 77.5004 68.1356 77.9661 65.652H73.4576V63.2178H80.7177Z" fill="black"/>
<path fill-rule="evenodd" clip-rule="evenodd" d="M88.8765 63.1598L105.095 63.1658L106.041 64.0015L105.179 64.8372L88.8765 64.8373L88.8765 63.1598Z" fill="black"/>
<path fill-rule="evenodd" clip-rule="evenodd" d="M98.465 56.5356L105.509 63.5783L104.323 64.764L97.279 57.7213L98.465 56.5356Z" fill="black"/>
<path fill-rule="evenodd" clip-rule="evenodd" d="M105.509 64.5088L98.465 71.5515L97.2791 70.3658L104.323 63.3231L105.509 64.5088Z" fill="black"/>
</svg>
