<svg width="167" height="67" viewBox="0 0 167 67" fill="none" xmlns="http://www.w3.org/2000/svg">
<g clip-path="url(#clip0_331_11943)">
<g filter="url(#filter0_i_331_11943)">
<mask id="mask0_331_11943" style="mask-type:alpha" maskUnits="userSpaceOnUse" x="53" y="0" width="13" height="67">
<path d="M53.7695 0.224854H65.0671V66.6492H53.7695V0.224854Z" fill="#111111"/>
</mask>
<g mask="url(#mask0_331_11943)">
<path d="M53.7695 0.224854H65.0671V66.6492H53.7695V0.224854Z" fill="#470000"/>
</g>
<mask id="mask1_331_11943" style="mask-type:alpha" maskUnits="userSpaceOnUse" x="0" y="0" width="45" height="67">
<path d="M44.9332 11.4423V0.224854H11.9206H0.623047V66.6492H11.9206H44.9332V55.4315H11.9206V38.9481H44.9332V27.829H11.9206V11.4423H44.9332Z" fill="#111111"/>
</mask>
<g mask="url(#mask1_331_11943)">
<path d="M44.9332 11.4423V0.224854H11.9206H0.623047V66.6492H11.9206H44.9332V55.4315H11.9206V38.9481H44.9332V27.829H11.9206V11.4423H44.9332Z" fill="#470000"/>
</g>
<mask id="mask2_331_11943" style="mask-type:alpha" maskUnits="userSpaceOnUse" x="71" y="15" width="41" height="52">
<path d="M81.6206 49.7629C81.6777 52.5056 82.662 54.5341 84.5734 55.8483C86.4849 57.1639 88.8956 57.8196 91.8056 57.8196C92.9467 57.8196 94.0451 57.7053 95.1007 57.4767C96.1563 57.2496 97.0835 56.8768 97.8823 56.3625C98.6811 55.8483 99.323 55.2054 99.808 54.4341C100.293 53.6627 100.536 52.7342 100.536 51.6485C100.536 50.7914 100.279 50.0343 99.7652 49.3772C99.2517 48.7216 98.4101 48.1059 97.2404 47.5345C96.0707 46.9646 94.5586 46.4346 92.7042 45.9489C90.8498 45.4646 88.5818 44.9075 85.9 44.2776C84.0171 43.8205 82.234 43.2919 80.5508 42.692C78.8676 42.092 77.4126 41.3078 76.1858 40.335C74.9591 39.3636 73.9748 38.1637 73.2331 36.7352C72.4913 35.3082 72.0919 33.5354 72.0348 31.4213C72.0348 28.4514 72.5626 25.9788 73.6182 24.0075C74.6738 22.0361 76.086 20.4505 77.8548 19.2506C79.6236 18.0507 81.6634 17.1936 83.9743 16.6793C86.2852 16.1651 88.6674 15.908 91.1209 15.908C93.5744 15.908 95.9281 16.1794 98.1819 16.7222C100.436 17.2665 102.433 18.1364 104.173 19.3363C105.913 20.5362 107.354 22.1218 108.495 24.0931C109.636 26.0645 110.321 28.4786 110.549 31.3355H99.9364C99.7652 28.88 98.8808 27.1787 97.2832 26.2359C95.6856 25.2931 93.5174 24.8217 90.7785 24.8217C88.6674 24.8217 86.8843 25.1217 85.4293 25.7216C83.9744 26.3216 83.2468 27.5087 83.2468 29.2785C83.2468 30.937 84.174 32.1926 86.0285 33.0497C87.8829 33.9068 90.693 34.7353 94.4588 35.5353C96.57 36.0495 98.6669 36.5938 100.75 37.1637C102.832 37.7351 104.687 38.5351 106.313 39.5636C107.939 40.5921 109.251 41.9349 110.25 43.5919C111.248 45.2503 111.748 47.3631 111.748 49.9343C111.748 53.0199 111.191 55.6211 110.079 57.7339C108.966 59.848 107.482 61.5779 105.628 62.9192C103.774 64.262 101.634 65.2205 99.209 65.7905C96.784 66.3605 94.2877 66.6476 91.72 66.6476C89.0383 66.6476 86.4706 66.3476 84.0171 65.7476C81.5636 65.1477 79.3954 64.192 77.5125 62.8764C75.6295 61.5622 74.1032 59.8209 72.9335 57.6481C71.7638 55.4768 71.1219 52.8485 71.0078 49.7629H81.6207H81.6206Z" fill="#111111"/>
</mask>
<g mask="url(#mask2_331_11943)">
<path d="M81.6206 49.7629C81.6777 52.5056 82.662 54.5341 84.5734 55.8483C86.4849 57.1639 88.8956 57.8196 91.8056 57.8196C92.9467 57.8196 94.0451 57.7053 95.1007 57.4767C96.1563 57.2496 97.0835 56.8768 97.8823 56.3625C98.6811 55.8483 99.323 55.2054 99.808 54.4341C100.293 53.6627 100.536 52.7342 100.536 51.6485C100.536 50.7914 100.279 50.0343 99.7652 49.3772C99.2517 48.7216 98.4101 48.1059 97.2404 47.5345C96.0707 46.9646 94.5586 46.4346 92.7042 45.9489C90.8498 45.4646 88.5818 44.9075 85.9 44.2776C84.0171 43.8205 82.234 43.2919 80.5508 42.692C78.8676 42.092 77.4126 41.3078 76.1858 40.335C74.9591 39.3636 73.9748 38.1637 73.2331 36.7352C72.4913 35.3082 72.0919 33.5354 72.0348 31.4213C72.0348 28.4514 72.5626 25.9788 73.6182 24.0075C74.6738 22.0361 76.086 20.4505 77.8548 19.2506C79.6236 18.0507 81.6634 17.1936 83.9743 16.6793C86.2852 16.1651 88.6674 15.908 91.1209 15.908C93.5744 15.908 95.9281 16.1794 98.1819 16.7222C100.436 17.2665 102.433 18.1364 104.173 19.3363C105.913 20.5362 107.354 22.1218 108.495 24.0931C109.636 26.0645 110.321 28.4786 110.549 31.3355H99.9364C99.7652 28.88 98.8808 27.1787 97.2832 26.2359C95.6856 25.2931 93.5174 24.8217 90.7785 24.8217C88.6674 24.8217 86.8843 25.1217 85.4293 25.7216C83.9744 26.3216 83.2468 27.5087 83.2468 29.2785C83.2468 30.937 84.174 32.1926 86.0285 33.0497C87.8829 33.9068 90.693 34.7353 94.4588 35.5353C96.57 36.0495 98.6669 36.5938 100.75 37.1637C102.832 37.7351 104.687 38.5351 106.313 39.5636C107.939 40.5921 109.251 41.9349 110.25 43.5919C111.248 45.2503 111.748 47.3631 111.748 49.9343C111.748 53.0199 111.191 55.6211 110.079 57.7339C108.966 59.848 107.482 61.5779 105.628 62.9192C103.774 64.262 101.634 65.2205 99.209 65.7905C96.784 66.3605 94.2877 66.6476 91.72 66.6476C89.0383 66.6476 86.4706 66.3476 84.0171 65.7476C81.5636 65.1477 79.3954 64.192 77.5125 62.8764C75.6295 61.5622 74.1032 59.8209 72.9335 57.6481C71.7638 55.4768 71.1219 52.8485 71.0078 49.7629H81.6207H81.6206Z" fill="#470000"/>
</g>
<mask id="mask3_331_11943" style="mask-type:alpha" maskUnits="userSpaceOnUse" x="117" y="15" width="49" height="52">
<path d="M141.522 56.9311C134.309 56.9311 128.462 51.9106 128.462 45.7175H165.13C165.372 44.2734 165.521 42.7953 165.521 41.2779C165.521 27.2664 154.776 15.908 141.522 15.908C128.268 15.908 117.523 27.2664 117.523 41.2779C117.523 55.2893 128.268 66.6475 141.522 66.6475C151.74 66.6475 160.443 59.885 163.905 50.3729H153.372C151.309 54.2348 146.794 56.9311 141.522 56.9311ZM141.522 25.6244C148.735 25.6244 154.582 30.6449 154.582 36.8379H128.462C128.462 30.6448 134.309 25.6244 141.522 25.6244Z" fill="#111111"/>
</mask>
<g mask="url(#mask3_331_11943)">
<path d="M141.522 56.9311C134.309 56.9311 128.462 51.9106 128.462 45.7175H165.13C165.372 44.2734 165.521 42.7953 165.521 41.2779C165.521 27.2664 154.776 15.908 141.522 15.908C128.268 15.908 117.523 27.2664 117.523 41.2779C117.523 55.2893 128.268 66.6475 141.522 66.6475C151.74 66.6475 160.443 59.885 163.905 50.3729H153.372C151.309 54.2348 146.794 56.9311 141.522 56.9311ZM141.522 25.6244C148.735 25.6244 154.582 30.6449 154.582 36.8379H128.462C128.462 30.6448 134.309 25.6244 141.522 25.6244Z" fill="#470000"/>
</g>
<mask id="mask4_331_11943" style="mask-type:alpha" maskUnits="userSpaceOnUse" x="-22" y="-30" width="216" height="126">
<path opacity="0.15" d="M87.4983 -28.7233C87.4983 -28.7233 68.273 -26.3167 87.4983 8.81913C87.4983 8.81913 83.0925 5.74405 78.9537 1.59942V12.1883C78.9537 12.1883 37.5124 -33.0551 87.4983 -28.7233Z" fill="black"/>
<path opacity="0.15" d="M87.4983 54.9767C87.4983 54.9767 68.273 57.3832 87.4983 92.5191C87.4983 92.5191 83.0925 89.444 78.9537 85.2994V95.8882C78.9537 95.8882 37.5124 50.6448 87.4983 54.9767Z" fill="black"/>
<path opacity="0.7" d="M84.385 13.1261C84.385 13.1261 65.1597 15.5326 84.385 50.6685C84.385 50.6685 79.9792 47.5934 75.8405 43.4488V54.0377C75.8405 54.0377 34.3992 8.79425 84.385 13.1261Z" fill="#B60101"/>
<path opacity="0.15" d="M88.6287 15.889C88.6287 15.889 110.738 8.40729 104.97 30.0664C104.97 30.0664 116.983 23.3294 116.986 11.2991C116.991 -11.1979 80.7171 -9.37633 88.6287 15.889Z" fill="black"/>
<path opacity="0.3" d="M85.5174 53.0675C85.5174 53.0675 107.626 45.5858 101.859 67.2448C101.859 67.2448 113.872 60.5079 113.875 48.4776C113.88 25.9806 77.6058 27.8021 85.5174 53.0675Z" fill="black"/>
<path opacity="0.15" d="M139.369 36.4901C139.369 36.4901 117.26 29.0084 123.028 50.6674C123.028 50.6674 111.014 43.9305 111.012 31.9002C111.007 9.4032 147.281 11.2247 139.369 36.4901Z" fill="black"/>
<path opacity="0.15" d="M136.533 -8.72913C136.533 -8.72913 114.424 -16.2109 120.192 5.4482C120.192 5.4482 108.178 -1.28874 108.176 -13.3191C108.171 -35.816 144.445 -33.9945 136.533 -8.72913Z" fill="black"/>
<path opacity="0.15" d="M136.533 77.4247C136.533 77.4247 114.424 69.9429 120.192 91.602C120.192 91.602 108.178 84.8651 108.176 72.8347C108.171 50.3378 144.445 52.1593 136.533 77.4247Z" fill="black"/>
<path opacity="0.15" d="M6.71315 54.9767C6.71315 54.9767 -12.5122 57.3832 6.71315 92.5191C6.71315 92.5191 2.30736 89.444 -1.83142 85.2994V95.8882C-1.83142 95.8882 -43.2727 50.6448 6.71315 54.9767Z" fill="black"/>
<path opacity="0.15" d="M3.59792 13.1261C3.59792 13.1261 -15.6274 15.5326 3.59792 50.6685C3.59792 50.6685 -0.807878 47.5934 -4.94665 43.4488V54.0377C-4.94665 54.0377 -46.388 8.79425 3.59792 13.1261Z" fill="black"/>
<path opacity="0.7" d="M-2.49046 15.889C-2.49046 15.889 19.6187 8.40729 13.8511 30.0664C13.8511 30.0664 25.8643 23.3294 25.8669 11.2991C25.8718 -11.1979 -10.402 -9.37633 -2.49046 15.889Z" fill="black"/>
<path opacity="0.15" d="M4.72829 53.0675C4.72829 53.0675 26.8374 45.5858 21.0698 67.2448C21.0698 67.2448 33.083 60.5079 33.0856 48.4776C33.0905 25.9806 -3.1833 27.8021 4.72829 53.0675Z" fill="black"/>
<path opacity="0.4" d="M58.5819 36.4901C58.5819 36.4901 36.4728 29.0084 42.2404 50.6674C42.2404 50.6674 30.2272 43.9305 30.2246 31.9002C30.2197 9.4032 66.4935 11.2247 58.5819 36.4901Z" fill="black"/>
<path opacity="0.15" d="M55.744 -8.72913C55.744 -8.72913 33.6349 -16.2109 39.4025 5.4482C39.4025 5.4482 27.3893 -1.28874 27.3867 -13.3191C27.3818 -35.816 63.6556 -33.9945 55.744 -8.72913Z" fill="black"/>
<path opacity="0.7" d="M55.744 77.4247C55.744 77.4247 33.6349 69.9429 39.4025 91.602C39.4025 91.602 27.3893 84.8651 27.3867 72.8347C27.3818 50.3378 63.6556 52.1593 55.744 77.4247Z" fill="#B60101"/>
<path opacity="0.15" d="M166.965 -28.7233C166.965 -28.7233 147.74 -26.3167 166.965 8.81913C166.965 8.81913 162.559 5.74405 158.421 1.59942V12.1883C158.421 12.1883 116.979 -33.0551 166.965 -28.7233Z" fill="black"/>
<path opacity="0.15" d="M166.965 54.9767C166.965 54.9767 147.74 57.3832 166.965 92.5191C166.965 92.5191 162.559 89.444 158.421 85.2994V95.8882C158.421 95.8882 116.979 50.6448 166.965 54.9767Z" fill="black"/>
<path opacity="0.7" d="M163.852 13.1258C163.852 13.1258 144.626 15.5324 163.852 50.6683C163.852 50.6683 159.446 47.5932 155.307 43.4485V54.0374C155.307 54.0374 113.866 8.794 163.852 13.1258Z" fill="#B60101"/>
<path opacity="0.15" d="M164.984 53.0675C164.984 53.0675 187.093 45.5858 181.326 67.2448C181.326 67.2448 193.339 60.5079 193.341 48.4776C193.346 25.9806 157.073 27.8021 164.984 53.0675Z" fill="black"/>
</mask>
<g mask="url(#mask4_331_11943)">
<path d="M44.9318 11.4331V0.214111H11.9712H0.691406V66.647H11.9712H44.9318V55.4279H11.9712V38.9424H44.9318V27.8218H11.9712V11.4331H44.9318Z" fill="#FF0000"/>
<mask id="mask5_331_11943" style="mask-type:alpha" maskUnits="userSpaceOnUse" x="53" y="-1" width="12" height="68">
<path d="M53.0938 -0.19043H64.6057V66.2425H53.0938V-0.19043Z" fill="black"/>
</mask>
<g mask="url(#mask5_331_11943)">
<path d="M53.7676 0.222656H65.065V66.647H53.7676V0.222656Z" fill="#FF0000"/>
</g>
<mask id="mask6_331_11943" style="mask-type:alpha" maskUnits="userSpaceOnUse" x="0" y="-1" width="46" height="68">
<path d="M45.3521 11.0285V-0.19043H11.7131H0.201172V66.2425H11.7131H45.3521V55.0234H11.7131V38.5378H45.3521V27.4173H11.7131V11.0285H45.3521Z" fill="white"/>
</mask>
<g mask="url(#mask6_331_11943)">
</g>
<mask id="mask7_331_11943" style="mask-type:alpha" maskUnits="userSpaceOnUse" x="70" y="15" width="43" height="52">
<path d="M81.4743 49.354C81.5325 52.097 82.5354 54.1257 84.4831 55.4401C86.4309 56.7559 88.8873 57.4117 91.8525 57.4117C93.0153 57.4117 94.1345 57.2974 95.2101 57.0688C96.2858 56.8416 97.2306 56.4687 98.0445 55.9544C98.8585 55.4401 99.5126 54.7972 100.007 54.0257C100.501 53.2543 100.748 52.3256 100.748 51.2398C100.748 50.3826 100.486 49.6254 99.9632 48.9682C99.4399 48.3125 98.5823 47.6967 97.3904 47.1253C96.1985 46.5552 94.6578 46.0252 92.7682 45.5395C90.8786 45.0551 88.5676 44.498 85.8349 43.8679C83.9163 43.4107 82.0994 42.8822 80.3842 42.2821C78.6691 41.6821 77.1865 40.8978 75.9364 39.9248C74.6864 38.9533 73.6834 37.7532 72.9276 36.3246C72.1718 34.8974 71.7648 33.1244 71.7067 31.0099C71.7067 28.0397 72.2444 25.5667 73.3201 23.5952C74.3957 21.6236 75.8347 20.0378 77.637 18.8377C79.4394 17.6376 81.518 16.7804 83.8727 16.2661C86.2274 15.7518 88.6548 15.4946 91.1549 15.4946C93.6549 15.4946 96.0533 15.7661 98.3498 16.309C100.646 16.8533 102.681 17.7233 104.455 18.9234C106.228 20.1235 107.696 21.7093 108.859 23.6809C110.022 25.6524 110.719 28.0669 110.952 30.9242H100.138C99.9632 28.4683 99.062 26.7668 97.4341 25.8239C95.8061 24.881 93.5968 24.4095 90.806 24.4095C88.6548 24.4095 86.8379 24.7095 85.3553 25.3096C83.8727 25.9096 83.1314 27.0968 83.1314 28.867C83.1314 30.5256 84.0762 31.7814 85.9658 32.6386C87.8554 33.4958 90.7188 34.3244 94.5561 35.1245C96.7073 35.6388 98.844 36.1831 100.966 36.7532C103.088 37.3246 104.978 38.1247 106.635 39.1533C108.292 40.182 109.629 41.5249 110.647 43.1821C111.664 44.8408 112.173 46.9538 112.173 49.5254C112.173 52.6113 111.606 55.2129 110.472 57.3259C109.339 59.4404 107.827 61.1705 105.937 62.512C104.048 63.8549 101.867 64.8136 99.3964 65.3836C96.9254 65.9537 94.3817 66.2408 91.7653 66.2408C89.0327 66.2408 86.4164 65.9408 83.9163 65.3408C81.4162 64.7407 79.2069 63.7849 77.2882 62.4691C75.3696 61.1548 73.8143 59.4132 72.6224 57.2402C71.4305 55.0686 70.7764 52.4399 70.6602 49.354H81.4744H81.4743Z" fill="black"/>
</mask>
<g mask="url(#mask7_331_11943)">
<path d="M81.6187 49.7654C81.6757 52.5084 82.66 54.5371 84.5714 55.8515C86.4829 57.1673 88.8936 57.8231 91.8036 57.8231C92.9448 57.8231 94.0431 57.7088 95.0987 57.4802C96.1543 57.253 97.0815 56.8801 97.8803 56.3658C98.6792 55.8515 99.3211 55.2086 99.8061 54.4371C100.291 53.6656 100.534 52.737 100.534 51.6512C100.534 50.794 100.277 50.0368 99.7633 49.3796C99.2498 48.7239 98.4081 48.1081 97.2384 47.5366C96.0687 46.9666 94.5567 46.4366 92.7023 45.9508C90.8479 45.4665 88.5798 44.9093 85.8981 44.2793C84.0151 43.8221 82.2321 43.2935 80.5489 42.6935C78.8656 42.0934 77.4106 41.3091 76.1839 40.3362C74.9571 39.3647 73.9729 38.1646 73.2311 36.736C72.4893 35.3087 72.09 33.5358 72.0329 31.4213C72.0329 28.4511 72.5607 25.9781 73.6162 24.0065C74.6718 22.035 76.084 20.4492 77.8528 19.2491C79.6217 18.049 81.6615 17.1918 83.9724 16.6775C86.2833 16.1631 88.6655 15.906 91.119 15.906C93.5725 15.906 95.9261 16.1774 98.1799 16.7203C100.434 17.2647 102.431 18.1347 104.171 19.3348C105.911 20.5348 107.352 22.1207 108.493 24.0922C109.634 26.0638 110.319 28.4782 110.547 31.3356H99.9345C99.7633 28.8797 98.8789 27.1782 97.2813 26.2353C95.6836 25.2924 93.5154 24.8209 90.7766 24.8209C88.6654 24.8209 86.8823 25.1209 85.4274 25.721C83.9724 26.321 83.2449 27.5082 83.2449 29.2783C83.2449 30.937 84.1721 32.1928 86.0265 33.05C87.8809 33.9072 90.691 34.7358 94.4569 35.5359C96.5681 36.0502 98.6649 36.5945 100.748 37.1646C102.83 37.736 104.685 38.5361 106.311 39.5647C107.937 40.5933 109.249 41.9363 110.248 43.5935C111.246 45.2522 111.746 47.3652 111.746 49.9368C111.746 53.0227 111.189 55.6243 110.077 57.7373C108.964 59.8518 107.481 61.5818 105.626 62.9234C103.772 64.2663 101.632 65.2249 99.207 65.795C96.782 66.3651 94.2857 66.6522 91.7181 66.6522C89.0363 66.6522 86.4687 66.3522 84.0152 65.7521C81.5617 65.1521 79.3934 64.1963 77.5105 62.8805C75.6276 61.5661 74.1013 59.8246 72.9316 57.6516C71.7619 55.48 71.12 52.8513 71.0059 49.7654H81.6187Z" fill="#FF0000"/>
</g>
<mask id="mask8_331_11943" style="mask-type:alpha" maskUnits="userSpaceOnUse" x="116" y="15" width="50" height="52">
<path d="M141.065 56.9364C133.715 56.9364 127.757 51.9153 127.757 45.7214H165.121C165.368 44.2771 165.519 42.7988 165.519 41.2811C165.519 27.2679 154.571 15.908 141.065 15.908C127.56 15.908 116.611 27.2678 116.611 41.2811C116.611 55.2944 127.56 66.6541 141.065 66.6541C151.477 66.6541 160.345 59.8907 163.873 50.3774H153.14C151.038 54.2398 146.437 56.9364 141.065 56.9364ZM141.065 25.6256C148.415 25.6256 154.373 30.6468 154.373 36.8406H127.757C127.757 30.6467 133.715 25.6256 141.065 25.6256Z" fill="black"/>
</mask>
<g mask="url(#mask8_331_11943)">
<path d="M141.431 56.9091C134.19 56.9091 128.321 51.8879 128.321 45.6941H165.127C165.37 44.2497 165.519 42.7714 165.519 41.2538C165.519 27.2405 154.734 15.8806 141.431 15.8806C128.127 15.8806 117.342 27.2405 117.342 41.2538C117.342 55.2671 128.127 66.6268 141.431 66.6268C151.687 66.6268 160.422 59.8634 163.897 50.35H153.325C151.255 54.2124 146.722 56.9091 141.431 56.9091ZM141.431 25.5983C148.671 25.5983 154.54 30.6194 154.54 36.8133H128.321C128.321 30.6194 134.19 25.5983 141.431 25.5983Z" fill="#FF0000"/>
</g>
</g>
</g>
</g>
<defs>
<filter id="filter0_i_331_11943" x="0.623047" y="0.214111" width="164.898" height="70.4351" filterUnits="userSpaceOnUse" color-interpolation-filters="sRGB">
<feFlood flood-opacity="0" result="BackgroundImageFix"/>
<feBlend mode="normal" in="SourceGraphic" in2="BackgroundImageFix" result="shape"/>
<feColorMatrix in="SourceAlpha" type="matrix" values="0 0 0 0 0 0 0 0 0 0 0 0 0 0 0 0 0 0 127 0" result="hardAlpha"/>
<feOffset dy="7"/>
<feGaussianBlur stdDeviation="2"/>
<feComposite in2="hardAlpha" operator="arithmetic" k2="-1" k3="1"/>
<feColorMatrix type="matrix" values="0 0 0 0 0 0 0 0 0 0 0 0 0 0 0 0 0 0 0.8 0"/>
<feBlend mode="normal" in2="shape" result="effect1_innerShadow_331_11943"/>
</filter>
<clipPath id="clip0_331_11943">
<rect width="167" height="67" fill="white"/>
</clipPath>
</defs>
</svg>
