<svg width="341" height="137" viewBox="0 0 341 137" fill="none" xmlns="http://www.w3.org/2000/svg">
<path d="M109.438 0H132.702V136.87H109.438V0Z" fill="white"/>
<path d="M166.792 102.209C166.909 107.86 168.936 112.04 172.872 114.748C176.808 117.459 181.773 118.81 187.765 118.81C190.115 118.81 192.377 118.574 194.55 118.103C196.724 117.635 198.633 116.867 200.278 115.808C201.923 114.748 203.245 113.423 204.244 111.834C205.243 110.244 205.742 108.331 205.742 106.094C205.742 104.328 205.213 102.768 204.156 101.414C203.098 100.063 201.365 98.7944 198.956 97.6171C196.548 96.4426 193.434 95.3506 189.615 94.3499C185.797 93.352 181.126 92.2041 175.604 90.906C171.727 89.9641 168.055 88.8751 164.589 87.6388C161.123 86.4025 158.126 84.7866 155.6 82.7822C153.074 80.7806 151.047 78.3081 149.52 75.3647C147.992 72.4242 147.17 68.7714 147.052 64.415C147.052 58.2956 148.139 53.2005 150.313 49.1386C152.487 45.0766 155.395 41.8094 159.037 39.3369C162.679 36.8644 166.88 35.0984 171.639 34.0387C176.397 32.979 181.303 32.4492 186.355 32.4492C191.407 32.4492 196.254 33.0085 200.895 34.127C205.536 35.2485 209.649 37.041 213.232 39.5134C216.816 41.9859 219.783 45.2532 222.133 49.3151C224.483 53.3771 225.893 58.3515 226.363 64.2384H204.508C204.156 59.1786 202.335 55.673 199.045 53.7303C195.755 51.7877 191.29 50.8163 185.65 50.8163C181.303 50.8163 177.631 51.4345 174.635 52.6707C171.639 53.907 170.141 56.353 170.141 59.9999C170.141 63.4172 172.05 66.0045 175.868 67.7706C179.687 69.5366 185.474 71.2438 193.229 72.8922C197.576 73.9518 201.894 75.0733 206.183 76.2477C210.471 77.425 214.29 79.0734 217.639 81.1926C220.987 83.3119 223.69 86.0788 225.746 89.4931C227.802 92.9104 228.83 97.2638 228.83 102.562C228.83 108.92 227.685 114.28 225.393 118.633C223.102 122.99 220.047 126.554 216.229 129.318C212.41 132.085 208.004 134.06 203.01 135.234C198.017 136.409 192.876 137 187.589 137C182.066 137 176.779 136.382 171.727 135.146C166.674 133.91 162.209 131.941 158.332 129.23C154.455 126.522 151.312 122.934 148.903 118.457C146.494 113.983 145.172 108.567 144.938 102.209H166.792Z" fill="white"/>
<path d="M290.583 116.979C275.729 116.979 263.689 106.634 263.689 93.8731H339.197C339.695 90.8975 340.001 87.8517 340.001 84.725C340.001 55.8538 317.876 32.4492 290.583 32.4492C263.289 32.4492 241.164 55.8537 241.164 84.725C241.164 113.596 263.289 137 290.583 137C311.624 137 329.545 123.066 336.674 103.466H314.985C310.737 111.423 301.439 116.979 290.583 116.979ZM290.583 52.4703C305.436 52.4703 317.477 62.8152 317.477 75.5763H263.689C263.689 62.8152 275.73 52.4703 290.583 52.4703Z" fill="white"/>
<path d="M91.245 23.1141V0H23.2644H0V136.87H23.2644H91.245V113.756H23.2644V79.7909H91.245V56.8795H23.2644V23.1141H91.245Z" fill="white"/>
</svg>
