<svg width="378" height="153" viewBox="0 0 378 153" fill="none" xmlns="http://www.w3.org/2000/svg">
<g clip-path="url(#clip0_287_1329)">
<g filter="url(#filter0_i_287_1329)">
<mask id="mask0_287_1329" style="mask-type:alpha" maskUnits="userSpaceOnUse" x="121" y="-1" width="27" height="154">
<path d="M121.604 -0.0429688H147.509V152.053H121.604V-0.0429688Z" fill="#111111"/>
</mask>
<g mask="url(#mask0_287_1329)">
<path d="M121.604 -0.0429688H147.509V152.053H121.604V-0.0429688Z" fill="black"/>
</g>
<mask id="mask1_287_1329" style="mask-type:alpha" maskUnits="userSpaceOnUse" x="-1" y="-1" width="103" height="154">
<path d="M101.338 25.6425V-0.0429688H25.6398H-0.265625V152.053H25.6398H101.338V126.367H25.6398V88.6242H101.338V63.164H25.6398V25.6425H101.338Z" fill="#111111"/>
</mask>
<g mask="url(#mask1_287_1329)">
<path d="M101.338 25.6425V-0.0429688H25.6398H-0.265625V152.053H25.6398H101.338V126.367H25.6398V88.6242H101.338V63.164H25.6398V25.6425H101.338Z" fill="black"/>
</g>
<mask id="mask2_287_1329" style="mask-type:alpha" maskUnits="userSpaceOnUse" x="161" y="35" width="94" height="118">
<path d="M185.466 113.389C185.597 119.669 187.854 124.314 192.237 127.323C196.62 130.336 202.148 131.837 208.82 131.837C211.437 131.837 213.955 131.575 216.376 131.052C218.796 130.532 220.922 129.678 222.754 128.501C224.586 127.323 226.058 125.851 227.17 124.085C228.282 122.319 228.838 120.193 228.838 117.707C228.838 115.744 228.249 114.011 227.072 112.506C225.894 111.005 223.964 109.595 221.282 108.287C218.6 106.981 215.133 105.768 210.881 104.656C206.629 103.547 201.428 102.271 195.279 100.829C190.961 99.7823 186.873 98.5721 183.013 97.1983C179.153 95.8245 175.817 94.0288 173.004 91.8013C170.191 89.5772 167.934 86.8296 166.233 83.5587C164.532 80.2911 163.617 76.2319 163.486 71.391C163.486 64.5908 164.696 58.9289 167.116 54.4151C169.537 49.9013 172.775 46.2706 176.831 43.523C180.887 40.7755 185.564 38.813 190.863 37.6354C196.162 36.4578 201.624 35.8691 207.25 35.8691C212.876 35.8691 218.273 36.4906 223.441 37.7335C228.609 38.9798 233.188 40.9717 237.179 43.7192C241.169 46.4667 244.473 50.0975 247.09 54.6113C249.706 59.1251 251.276 64.6529 251.8 71.1947H227.464C227.072 65.572 225.044 61.6764 221.38 59.5177C217.717 57.3589 212.745 56.2795 206.465 56.2795C201.624 56.2795 197.536 56.9664 194.199 58.3402C190.863 59.714 189.195 62.432 189.195 66.4847C189.195 70.2821 191.321 73.1573 195.573 75.1198C199.825 77.0823 206.269 78.9794 214.904 80.8111C219.745 81.9886 224.553 83.2349 229.329 84.5399C234.104 85.8483 238.356 87.68 242.085 90.035C245.814 92.39 248.823 95.4647 251.113 99.2589C253.403 103.056 254.547 107.894 254.547 113.782C254.547 120.847 253.272 126.803 250.72 131.641C248.169 136.482 244.767 140.443 240.515 143.514C236.263 146.589 231.357 148.783 225.796 150.088C220.236 151.394 214.512 152.051 208.624 152.051C202.475 152.051 196.587 151.364 190.961 149.99C185.335 148.617 180.364 146.428 176.046 143.416C171.729 140.407 168.229 136.419 165.547 131.444C162.864 126.473 161.393 120.454 161.131 113.389H185.466H185.466Z" fill="#111111"/>
</mask>
<g mask="url(#mask2_287_1329)">
<path d="M185.466 113.389C185.597 119.669 187.854 124.314 192.237 127.323C196.62 130.336 202.148 131.837 208.82 131.837C211.437 131.837 213.955 131.575 216.376 131.052C218.796 130.532 220.922 129.678 222.754 128.501C224.586 127.323 226.058 125.851 227.17 124.085C228.282 122.319 228.838 120.193 228.838 117.707C228.838 115.744 228.249 114.011 227.072 112.506C225.894 111.005 223.964 109.595 221.282 108.287C218.6 106.981 215.133 105.768 210.881 104.656C206.629 103.547 201.428 102.271 195.279 100.829C190.961 99.7823 186.873 98.5721 183.013 97.1983C179.153 95.8245 175.817 94.0288 173.004 91.8013C170.191 89.5772 167.934 86.8296 166.233 83.5587C164.532 80.2911 163.617 76.2319 163.486 71.391C163.486 64.5908 164.696 58.9289 167.116 54.4151C169.537 49.9013 172.775 46.2706 176.831 43.523C180.887 40.7755 185.564 38.813 190.863 37.6354C196.162 36.4578 201.624 35.8691 207.25 35.8691C212.876 35.8691 218.273 36.4906 223.441 37.7335C228.609 38.9798 233.188 40.9717 237.179 43.7192C241.169 46.4667 244.473 50.0975 247.09 54.6113C249.706 59.1251 251.276 64.6529 251.8 71.1947H227.464C227.072 65.572 225.044 61.6764 221.38 59.5177C217.717 57.3589 212.745 56.2795 206.465 56.2795C201.624 56.2795 197.536 56.9664 194.199 58.3402C190.863 59.714 189.195 62.432 189.195 66.4847C189.195 70.2821 191.321 73.1573 195.573 75.1198C199.825 77.0823 206.269 78.9794 214.904 80.8111C219.745 81.9886 224.553 83.2349 229.329 84.5399C234.104 85.8483 238.356 87.68 242.085 90.035C245.814 92.39 248.823 95.4647 251.113 99.2589C253.403 103.056 254.547 107.894 254.547 113.782C254.547 120.847 253.272 126.803 250.72 131.641C248.169 136.482 244.767 140.443 240.515 143.514C236.263 146.589 231.357 148.783 225.796 150.088C220.236 151.394 214.512 152.051 208.624 152.051C202.475 152.051 196.587 151.364 190.961 149.99C185.335 148.617 180.364 146.428 176.046 143.416C171.729 140.407 168.229 136.419 165.547 131.444C162.864 126.473 161.393 120.454 161.131 113.389H185.466H185.466Z" fill="black"/>
</g>
<mask id="mask3_287_1329" style="mask-type:alpha" maskUnits="userSpaceOnUse" x="267" y="35" width="111" height="118">
<path d="M322.824 129.803C306.284 129.803 292.877 118.307 292.877 104.126H376.958C377.512 100.819 377.853 97.4349 377.853 93.9603C377.853 61.8773 353.216 35.8691 322.824 35.8691C292.432 35.8691 267.795 61.8773 267.795 93.9603C267.795 126.043 292.432 152.051 322.824 152.051C346.253 152.051 366.209 136.566 374.147 114.786H349.996C345.266 123.629 334.913 129.803 322.824 129.803ZM322.824 58.1174C339.363 58.1174 352.771 69.6132 352.771 83.7939H292.877C292.877 69.6131 306.284 58.1174 322.824 58.1174Z" fill="#111111"/>
</mask>
<g mask="url(#mask3_287_1329)">
<path d="M322.824 129.803C306.284 129.803 292.877 118.307 292.877 104.126H376.958C377.512 100.819 377.853 97.4349 377.853 93.9603C377.853 61.8773 353.216 35.8691 322.824 35.8691C292.432 35.8691 267.795 61.8773 267.795 93.9603C267.795 126.043 292.432 152.051 322.824 152.051C346.253 152.051 366.209 136.566 374.147 114.786H349.996C345.266 123.629 334.913 129.803 322.824 129.803ZM322.824 58.1174C339.363 58.1174 352.771 69.6132 352.771 83.7939H292.877C292.877 69.6131 306.284 58.1174 322.824 58.1174Z" fill="black"/>
</g>
<mask id="mask4_287_1329" style="mask-type:alpha" maskUnits="userSpaceOnUse" x="-50" y="-67" width="492" height="286">
<path opacity="0.15" d="M198.954 -66.3306C198.954 -66.3306 154.87 -60.8202 198.954 19.6328C198.954 19.6328 188.851 12.5916 179.361 3.10132V27.3474C179.361 27.3474 84.3358 -76.2495 198.954 -66.3306Z" fill="black"/>
<path opacity="0.15" d="M198.954 125.322C198.954 125.322 154.87 130.832 198.954 211.285C198.954 211.285 188.851 204.244 179.361 194.754V219C179.361 219 84.3358 115.403 198.954 125.322Z" fill="black"/>
<path opacity="0.7" d="M191.815 29.4936C191.815 29.4936 147.731 35.004 191.815 115.457C191.815 115.457 181.712 108.416 172.222 98.9255V123.172C172.222 123.172 77.1971 19.5747 191.815 29.4936Z" fill="#B60101"/>
<path opacity="0.15" d="M201.543 35.8224C201.543 35.8224 252.239 18.691 239.014 68.2852C239.014 68.2852 266.561 52.8592 266.567 25.3126C266.578 -26.2003 183.402 -22.0293 201.543 35.8224Z" fill="black"/>
<path opacity="0.3" d="M194.41 120.951C194.41 120.951 245.107 103.82 231.882 153.414C231.882 153.414 259.428 137.988 259.434 110.441C259.445 58.9286 176.269 63.0996 194.41 120.951Z" fill="black"/>
<path opacity="0.15" d="M317.891 82.9904C317.891 82.9904 267.194 65.8589 280.42 115.453C280.42 115.453 252.873 100.027 252.867 72.4805C252.856 20.9677 336.032 25.1386 317.891 82.9904Z" fill="black"/>
<path opacity="0.15" d="M311.387 -20.5487C311.387 -20.5487 260.69 -37.6801 273.916 11.9141C273.916 11.9141 246.369 -3.51191 246.363 -31.0585C246.352 -82.5714 329.528 -78.4004 311.387 -20.5487Z" fill="black"/>
<path opacity="0.15" d="M311.387 176.725C311.387 176.725 260.69 159.593 273.916 209.188C273.916 209.188 246.369 193.762 246.363 166.215C246.352 114.702 329.528 118.873 311.387 176.725Z" fill="black"/>
<path opacity="0.15" d="M13.7114 125.322C13.7114 125.322 -30.3723 130.832 13.7114 211.285C13.7114 211.285 3.60893 204.244 -5.8813 194.754V219C-5.8813 219 -100.906 115.403 13.7114 125.322Z" fill="black"/>
<path opacity="0.15" d="M6.56886 29.4936C6.56886 29.4936 -37.5149 35.004 6.56886 115.457C6.56886 115.457 -3.53365 108.416 -13.0239 98.9255V123.172C-13.0239 123.172 -108.049 19.5747 6.56886 29.4936Z" fill="black"/>
<path opacity="0.7" d="M-7.3924 35.8224C-7.3924 35.8224 43.3039 18.691 30.0788 68.2852C30.0788 68.2852 57.6252 52.8592 57.6311 25.3126C57.6424 -26.2003 -25.5337 -22.0293 -7.3924 35.8224Z" fill="black"/>
<path opacity="0.15" d="M9.16229 120.951C9.16229 120.951 59.8586 103.82 46.6335 153.414C46.6335 153.414 74.1798 137.988 74.1858 110.441C74.1971 58.9286 -8.97902 63.0996 9.16229 120.951Z" fill="black"/>
<path opacity="0.4" d="M132.65 82.9904C132.65 82.9904 81.9541 65.8589 95.1793 115.453C95.1793 115.453 67.6329 100.027 67.627 72.4805C67.6157 20.9677 150.792 25.1386 132.65 82.9904Z" fill="black"/>
<path opacity="0.15" d="M126.141 -20.5487C126.141 -20.5487 75.4444 -37.6801 88.6695 11.9141C88.6695 11.9141 61.1231 -3.51191 61.1172 -31.0585C61.1059 -82.5714 144.282 -78.4004 126.141 -20.5487Z" fill="black"/>
<path opacity="0.7" d="M126.141 176.725C126.141 176.725 75.4444 159.593 88.6695 209.188C88.6695 209.188 61.1231 193.762 61.1172 166.215C61.1059 114.702 144.282 118.873 126.141 176.725Z" fill="#B60101"/>
<path opacity="0.15" d="M381.17 -66.3306C381.17 -66.3306 337.087 -60.8202 381.17 19.6328C381.17 19.6328 371.068 12.5916 361.578 3.10132V27.3474C361.578 27.3474 266.553 -76.2495 381.17 -66.3306Z" fill="black"/>
<path opacity="0.15" d="M381.17 125.322C381.17 125.322 337.087 130.832 381.17 211.285C381.17 211.285 371.068 204.244 361.578 194.754V219C361.578 219 266.553 115.403 381.17 125.322Z" fill="black"/>
<path opacity="0.7" d="M374.034 29.4936C374.034 29.4936 329.95 35.004 374.034 115.457C374.034 115.457 363.931 108.416 354.441 98.9255V123.172C354.441 123.172 259.416 19.5747 374.034 29.4936Z" fill="#B60101"/>
<path opacity="0.15" d="M376.627 120.951C376.627 120.951 427.323 103.82 414.098 153.414C414.098 153.414 441.645 137.988 441.651 110.441C441.662 58.9286 358.486 63.0996 376.627 120.951Z" fill="black"/>
</mask>
<g mask="url(#mask4_287_1329)">
<path d="M101.344 25.6185V-0.0703125H25.765H-0.0996094V152.046H25.765H101.344V126.356H25.765V88.6084H101.344V63.1449H25.765V25.6185H101.344Z" fill="#FF0000"/>
<mask id="mask5_287_1329" style="mask-type:alpha" maskUnits="userSpaceOnUse" x="120" y="-1" width="27" height="153">
<path d="M120.061 -0.996094H146.457V151.12H120.061V-0.996094Z" fill="black"/>
</mask>
<g mask="url(#mask5_287_1329)">
<path d="M121.607 -0.0507812H147.512V152.045H121.607V-0.0507812Z" fill="#FF0000"/>
</g>
<mask id="mask6_287_1329" style="mask-type:alpha" maskUnits="userSpaceOnUse" x="-2" y="-1" width="105" height="153">
<path d="M102.309 24.6927V-0.996094H25.1743H-1.22266V151.12H25.1743H102.309V125.431H25.1743V87.6826H102.309V62.2191H25.1743V24.6927H102.309Z" fill="white"/>
</mask>
<g mask="url(#mask6_287_1329)">
</g>
<mask id="mask7_287_1329" style="mask-type:alpha" maskUnits="userSpaceOnUse" x="160" y="34" width="96" height="118">
<path d="M185.141 112.448C185.274 118.729 187.574 123.374 192.04 126.384C196.506 129.397 202.139 130.898 208.938 130.898C211.604 130.898 214.171 130.637 216.637 130.113C219.103 129.593 221.27 128.739 223.136 127.561C225.003 126.384 226.503 124.912 227.636 123.145C228.769 121.379 229.336 119.252 229.336 116.766C229.336 114.803 228.736 113.07 227.536 111.565C226.336 110.063 224.369 108.653 221.636 107.345C218.903 106.04 215.37 104.826 211.038 103.714C206.705 102.605 201.406 101.329 195.14 99.8862C190.74 98.8394 186.574 97.629 182.641 96.255C178.708 94.8811 175.309 93.0852 172.442 90.8574C169.576 88.6329 167.276 85.885 165.543 82.6137C163.81 79.3457 162.877 75.286 162.743 70.4444C162.743 63.6433 163.977 57.9807 166.443 53.4663C168.909 48.9519 172.209 45.3208 176.342 42.5728C180.475 39.8249 185.241 37.8622 190.64 36.6845C196.04 35.5067 201.606 34.918 207.338 34.918C213.071 34.918 218.57 35.5395 223.836 36.7826C229.102 38.029 233.768 40.0212 237.835 42.7691C241.901 45.5169 245.267 49.1481 247.933 53.6626C250.6 58.177 252.2 63.7055 252.733 70.2481H227.936C227.536 64.6247 225.469 60.7286 221.737 58.5696C218.004 56.4105 212.938 55.331 206.538 55.331C201.606 55.331 197.439 56.018 194.04 57.3919C190.64 58.7659 188.94 61.4843 188.94 65.5375C188.94 69.3354 191.107 72.2109 195.44 74.1737C199.772 76.1365 206.338 78.0338 215.137 79.8658C220.07 81.0434 224.97 82.2899 229.836 83.5951C234.702 84.9036 239.035 86.7355 242.834 89.0909C246.634 91.4462 249.7 94.5213 252.033 98.3159C254.366 102.114 255.533 106.952 255.533 112.841C255.533 119.907 254.233 125.864 251.633 130.702C249.033 135.543 245.567 139.505 241.234 142.577C236.901 145.652 231.902 147.847 226.236 149.152C220.57 150.457 214.737 151.115 208.738 151.115C202.472 151.115 196.473 150.428 190.74 149.054C185.008 147.68 179.941 145.492 175.542 142.479C171.142 139.469 167.576 135.481 164.843 130.506C162.11 125.533 160.61 119.514 160.344 112.448H185.141H185.141Z" fill="black"/>
</mask>
<g mask="url(#mask7_287_1329)">
<path d="M185.468 113.391C185.599 119.672 187.856 124.318 192.239 127.327C196.622 130.34 202.15 131.842 208.822 131.842C211.439 131.842 213.957 131.58 216.378 131.056C218.798 130.536 220.924 129.682 222.756 128.505C224.588 127.327 226.06 125.855 227.172 124.089C228.284 122.322 228.84 120.196 228.84 117.709C228.84 115.747 228.251 114.013 227.074 112.508C225.896 111.007 223.966 109.597 221.284 108.288C218.602 106.983 215.135 105.769 210.883 104.657C206.631 103.548 201.43 102.272 195.281 100.83C190.963 99.7827 186.875 98.5724 183.015 97.1984C179.155 95.8244 175.819 94.0285 173.006 91.8008C170.193 89.5763 167.936 86.8284 166.235 83.5571C164.534 80.2891 163.619 76.2293 163.488 71.3878C163.488 64.5867 164.698 58.9241 167.118 54.4097C169.539 49.8953 172.777 46.2641 176.833 43.5162C180.889 40.7683 185.566 38.8056 190.865 37.6278C196.164 36.4501 201.626 35.8613 207.252 35.8613C212.878 35.8613 218.275 36.4829 223.443 37.726C228.611 38.9724 233.19 40.9646 237.181 43.7124C241.171 46.4603 244.475 50.0915 247.092 54.6059C249.708 59.1203 251.278 64.6488 251.802 71.1915H227.466C227.074 65.5681 225.046 61.672 221.382 59.5129C217.719 57.3539 212.747 56.2743 206.467 56.2743C201.626 56.2743 197.538 56.9613 194.201 58.3353C190.865 59.7092 189.197 62.4277 189.197 66.4808C189.197 70.2788 191.323 73.1543 195.575 75.1171C199.827 77.0799 206.271 78.9772 214.906 80.8091C219.747 81.9868 224.555 83.2332 229.331 84.5384C234.106 85.8469 238.358 87.6789 242.087 90.0342C245.816 92.3895 248.825 95.4646 251.115 99.2593C253.405 103.057 254.549 107.896 254.549 113.784C254.549 120.85 253.274 126.807 250.722 131.645C248.171 136.487 244.769 140.448 240.517 143.52C236.265 146.595 231.359 148.79 225.798 150.095C220.238 151.401 214.514 152.058 208.626 152.058C202.477 152.058 196.589 151.371 190.963 149.997C185.337 148.623 180.366 146.435 176.048 143.422C171.73 140.412 168.231 136.425 165.549 131.449C162.866 126.477 161.394 120.457 161.133 113.391H185.468Z" fill="#FF0000"/>
</g>
<mask id="mask8_287_1329" style="mask-type:alpha" maskUnits="userSpaceOnUse" x="265" y="35" width="113" height="118">
<path d="M321.782 129.811C304.929 129.811 291.267 118.314 291.267 104.131H376.943C377.507 100.824 377.855 97.4389 377.855 93.9639C377.855 61.8768 352.75 35.8652 321.782 35.8652C290.814 35.8652 265.709 61.8767 265.709 93.9639C265.709 126.051 290.814 152.062 321.782 152.062C345.656 152.062 365.991 136.576 374.079 114.792H349.47C344.65 123.636 334.1 129.811 321.782 129.811ZM321.782 58.1164C338.635 58.1164 352.297 69.6137 352.297 83.7962H291.267C291.267 69.6136 304.929 58.1164 321.782 58.1164Z" fill="black"/>
</mask>
<g mask="url(#mask8_287_1329)">
<path d="M322.616 129.748C306.015 129.748 292.557 118.251 292.557 104.069H376.954C377.51 100.761 377.852 97.3764 377.852 93.9014C377.852 61.8143 353.122 35.8027 322.616 35.8027C292.111 35.8027 267.381 61.8142 267.381 93.9014C267.381 125.989 292.111 152 322.616 152C346.134 152 366.165 136.513 374.133 114.73H349.891C345.143 123.574 334.751 129.748 322.616 129.748ZM322.616 58.0539C339.218 58.0539 352.676 69.5512 352.676 83.7337H292.557C292.557 69.5511 306.015 58.0539 322.616 58.0539Z" fill="#FF0000"/>
</g>
</g>
</g>
</g>
<defs>
<filter id="filter0_i_287_1329" x="-0.265625" y="-0.0703125" width="378.118" height="156.123" filterUnits="userSpaceOnUse" color-interpolation-filters="sRGB">
<feFlood flood-opacity="0" result="BackgroundImageFix"/>
<feBlend mode="normal" in="SourceGraphic" in2="BackgroundImageFix" result="shape"/>
<feColorMatrix in="SourceAlpha" type="matrix" values="0 0 0 0 0 0 0 0 0 0 0 0 0 0 0 0 0 0 127 0" result="hardAlpha"/>
<feOffset dy="7"/>
<feGaussianBlur stdDeviation="2"/>
<feComposite in2="hardAlpha" operator="arithmetic" k2="-1" k3="1"/>
<feColorMatrix type="matrix" values="0 0 0 0 0 0 0 0 0 0 0 0 0 0 0 0 0 0 0.8 0"/>
<feBlend mode="normal" in2="shape" result="effect1_innerShadow_287_1329"/>
</filter>
<clipPath id="clip0_287_1329">
<rect width="378" height="153" fill="white"/>
</clipPath>
</defs>
</svg>
